<svg xmlns="http://www.w3.org/2000/svg" xmlns:xlink="http://www.w3.org/1999/xlink" width="2000" zoomAndPan="magnify" viewBox="0 0 1500 344.999992" height="460" preserveAspectRatio="xMidYMid meet" version="1.0"><defs><g/><clipPath id="5835ce3bc7"><path d="M 9.582031 6.828125 L 258.796875 6.828125 L 258.796875 336.433594 L 9.582031 336.433594 Z M 9.582031 6.828125 " clip-rule="nonzero"/></clipPath></defs><g clip-path="url(#5835ce3bc7)"><path fill="#95bf46" d="M 260.042969 307.25 L 220.820312 97.273438 C 220.820312 97.207031 220.820312 97.140625 220.753906 97.074219 C 220.753906 97.007812 220.753906 97.007812 220.6875 96.941406 C 220.621094 96.875 220.621094 96.742188 220.554688 96.675781 C 220.554688 96.675781 220.554688 96.609375 220.554688 96.609375 C 220.488281 96.480469 220.421875 96.414062 220.355469 96.347656 C 220.355469 96.347656 220.289062 96.347656 220.289062 96.28125 C 220.222656 96.214844 220.15625 96.148438 220.089844 96.082031 L 220.023438 96.015625 C 219.957031 95.949219 219.890625 95.882812 219.757812 95.882812 L 219.691406 95.882812 C 219.625 95.816406 219.492188 95.816406 219.425781 95.816406 L 219.359375 95.816406 C 219.296875 95.816406 219.164062 95.816406 219.097656 95.816406 L 179.140625 95.816406 L 177.152344 47.644531 C 176.160156 24.785156 158.203125 6.828125 136.273438 6.828125 C 126.398438 6.828125 116.859375 10.539062 109.570312 17.164062 C 102.082031 23.992188 97.246094 33.132812 95.851562 43.140625 L 88.300781 95.816406 L 54.441406 95.816406 C 53.578125 95.816406 52.785156 96.414062 52.585938 97.339844 L 9.78125 312.21875 C 9.582031 313.214844 10.179688 314.207031 11.171875 314.40625 C 11.238281 314.40625 11.304688 314.40625 11.371094 314.40625 L 201.933594 338.128906 L 202.132812 338.128906 C 202.265625 338.128906 202.398438 338.128906 202.53125 338.0625 L 202.664062 338.0625 C 202.796875 338.0625 202.863281 337.996094 202.996094 337.929688 L 203.0625 337.929688 L 259.050781 309.238281 C 259.78125 308.90625 260.175781 308.046875 260.042969 307.25 Z M 99.5625 43.601562 C 102.347656 24.386719 117.785156 10.472656 136.273438 10.472656 C 156.214844 10.472656 172.515625 26.90625 173.378906 47.777344 L 175.363281 95.75 L 92.011719 95.75 Z M 55.964844 99.460938 L 87.769531 99.460938 L 83.265625 130.734375 C 81.210938 131.332031 79.820312 133.253906 79.820312 135.4375 C 79.6875 138.023438 81.609375 140.210938 84.191406 140.34375 C 86.777344 140.476562 88.960938 138.554688 89.09375 135.96875 C 89.09375 135.769531 89.09375 135.636719 89.09375 135.4375 C 89.09375 133.78125 88.300781 132.257812 86.910156 131.332031 L 91.480469 99.460938 L 175.429688 99.460938 L 176.757812 131.066406 C 175.167969 131.925781 174.171875 133.582031 174.171875 135.4375 C 174.039062 138.023438 176.09375 140.144531 178.613281 140.277344 C 181.195312 140.410156 183.316406 138.355469 183.449219 135.835938 C 183.449219 135.703125 183.449219 135.570312 183.449219 135.4375 C 183.449219 133.453125 182.257812 131.664062 180.46875 130.933594 L 179.140625 99.460938 L 216.84375 99.460938 L 205.183594 266.101562 L 200.476562 334.152344 L 13.824219 310.960938 Z M 204.253906 333.089844 L 209.554688 257.222656 L 219.757812 112.25 L 256.070312 306.585938 Z M 204.253906 333.089844 " fill-opacity="1" fill-rule="nonzero"/></g><g fill="#d5ff3f" fill-opacity="1"><g transform="translate(282.501036, 222.509473)"><g><path d="M 114.203125 -55.9375 C 114.203125 -52.832031 114.007812 -49.59375 113.625 -46.21875 L 38.453125 -46.21875 C 38.972656 -39.488281 41.140625 -34.34375 44.953125 -30.78125 C 48.773438 -27.21875 53.472656 -25.4375 59.046875 -25.4375 C 67.328125 -25.4375 73.085938 -28.9375 76.328125 -35.9375 L 111.671875 -35.9375 C 109.859375 -28.8125 106.585938 -22.398438 101.859375 -16.703125 C 97.140625 -11.003906 91.21875 -6.535156 84.09375 -3.296875 C 76.976562 -0.0664062 69.015625 1.546875 60.203125 1.546875 C 49.585938 1.546875 40.132812 -0.71875 31.84375 -5.25 C 23.5625 -9.78125 17.085938 -16.253906 12.421875 -24.671875 C 7.765625 -33.085938 5.4375 -42.925781 5.4375 -54.1875 C 5.4375 -65.445312 7.734375 -75.285156 12.328125 -83.703125 C 16.929688 -92.117188 23.375 -98.59375 31.65625 -103.125 C 39.945312 -107.65625 49.460938 -109.921875 60.203125 -109.921875 C 70.691406 -109.921875 80.015625 -107.71875 88.171875 -103.3125 C 96.328125 -98.914062 102.703125 -92.640625 107.296875 -84.484375 C 111.898438 -76.328125 114.203125 -66.8125 114.203125 -55.9375 Z M 80.21875 -64.671875 C 80.21875 -70.367188 78.273438 -74.898438 74.390625 -78.265625 C 70.503906 -81.628906 65.644531 -83.3125 59.8125 -83.3125 C 54.25 -83.3125 49.554688 -81.691406 45.734375 -78.453125 C 41.921875 -75.222656 39.5625 -70.628906 38.65625 -64.671875 Z M 80.21875 -64.671875 "/></g></g></g><g fill="#d5ff3f" fill-opacity="1"><g transform="translate(392.218162, 222.509473)"><g><path d="M 5.4375 -54.1875 C 5.4375 -65.445312 7.734375 -75.285156 12.328125 -83.703125 C 16.929688 -92.117188 23.34375 -98.59375 31.5625 -103.125 C 39.78125 -107.65625 49.195312 -109.921875 59.8125 -109.921875 C 73.414062 -109.921875 84.78125 -106.359375 93.90625 -99.234375 C 103.03125 -92.117188 109.019531 -82.085938 111.875 -69.140625 L 76.515625 -69.140625 C 73.546875 -77.429688 67.785156 -81.578125 59.234375 -81.578125 C 53.148438 -81.578125 48.296875 -79.210938 44.671875 -74.484375 C 41.046875 -69.753906 39.234375 -62.988281 39.234375 -54.1875 C 39.234375 -45.382812 41.046875 -38.617188 44.671875 -33.890625 C 48.296875 -29.160156 53.148438 -26.796875 59.234375 -26.796875 C 67.785156 -26.796875 73.546875 -30.941406 76.515625 -39.234375 L 111.875 -39.234375 C 109.019531 -26.546875 102.992188 -16.578125 93.796875 -9.328125 C 84.609375 -2.078125 73.28125 1.546875 59.8125 1.546875 C 49.195312 1.546875 39.78125 -0.71875 31.5625 -5.25 C 23.34375 -9.78125 16.929688 -16.253906 12.328125 -24.671875 C 7.734375 -33.085938 5.4375 -42.925781 5.4375 -54.1875 Z M 5.4375 -54.1875 "/></g></g></g><g fill="#d5ff3f" fill-opacity="1"><g transform="translate(499.799166, 222.509473)"><g><path d="M 61.375 1.546875 C 50.757812 1.546875 41.207031 -0.71875 32.71875 -5.25 C 24.238281 -9.78125 17.570312 -16.253906 12.71875 -24.671875 C 7.863281 -33.085938 5.4375 -42.925781 5.4375 -54.1875 C 5.4375 -65.320312 7.894531 -75.128906 12.8125 -83.609375 C 17.738281 -92.085938 24.472656 -98.59375 33.015625 -103.125 C 41.554688 -107.65625 51.140625 -109.921875 61.765625 -109.921875 C 72.378906 -109.921875 81.957031 -107.65625 90.5 -103.125 C 99.050781 -98.59375 105.785156 -92.085938 110.703125 -83.609375 C 115.617188 -75.128906 118.078125 -65.320312 118.078125 -54.1875 C 118.078125 -43.050781 115.582031 -33.242188 110.59375 -24.765625 C 105.613281 -16.285156 98.816406 -9.78125 90.203125 -5.25 C 81.597656 -0.71875 71.988281 1.546875 61.375 1.546875 Z M 61.375 -27.1875 C 67.71875 -27.1875 73.125 -29.515625 77.59375 -34.171875 C 82.0625 -38.835938 84.296875 -45.507812 84.296875 -54.1875 C 84.296875 -62.863281 82.125 -69.53125 77.78125 -74.1875 C 73.445312 -78.851562 68.109375 -81.1875 61.765625 -81.1875 C 55.285156 -81.1875 49.910156 -78.882812 45.640625 -74.28125 C 41.367188 -69.6875 39.234375 -62.988281 39.234375 -54.1875 C 39.234375 -45.507812 41.335938 -38.835938 45.546875 -34.171875 C 49.753906 -29.515625 55.03125 -27.1875 61.375 -27.1875 Z M 61.375 -27.1875 "/></g></g></g><g fill="#d5ff3f" fill-opacity="1"><g transform="translate(613.594358, 222.509473)"><g><path d="M 150.328125 -109.546875 C 163.796875 -109.546875 174.507812 -105.460938 182.46875 -97.296875 C 190.425781 -89.140625 194.40625 -77.8125 194.40625 -63.3125 L 194.40625 0 L 161.390625 0 L 161.390625 -58.84375 C 161.390625 -65.84375 159.546875 -71.25 155.859375 -75.0625 C 152.171875 -78.882812 147.085938 -80.796875 140.609375 -80.796875 C 134.140625 -80.796875 129.054688 -78.882812 125.359375 -75.0625 C 121.671875 -71.25 119.828125 -65.84375 119.828125 -58.84375 L 119.828125 0 L 86.8125 0 L 86.8125 -58.84375 C 86.8125 -65.84375 84.96875 -71.25 81.28125 -75.0625 C 77.59375 -78.882812 72.507812 -80.796875 66.03125 -80.796875 C 59.5625 -80.796875 54.476562 -78.882812 50.78125 -75.0625 C 47.09375 -71.25 45.25 -65.84375 45.25 -58.84375 L 45.25 0 L 12.046875 0 L 12.046875 -108.375 L 45.25 -108.375 L 45.25 -94.78125 C 48.613281 -99.3125 53.015625 -102.90625 58.453125 -105.5625 C 63.890625 -108.21875 70.039062 -109.546875 76.90625 -109.546875 C 85.0625 -109.546875 92.34375 -107.796875 98.75 -104.296875 C 105.164062 -100.796875 110.1875 -95.8125 113.8125 -89.34375 C 117.5625 -95.300781 122.671875 -100.15625 129.140625 -103.90625 C 135.617188 -107.664062 142.679688 -109.546875 150.328125 -109.546875 Z M 150.328125 -109.546875 "/></g></g></g><g fill="#ffffff" fill-opacity="1"><g transform="translate(809.3765, 222.509473)"><g><path d="M 66.421875 -80.796875 L 48.546875 -80.796875 L 48.546875 0 L 15.34375 0 L 15.34375 -80.796875 L 3.296875 -80.796875 L 3.296875 -108.375 L 15.34375 -108.375 L 15.34375 -111.484375 C 15.34375 -124.816406 19.160156 -134.945312 26.796875 -141.875 C 34.441406 -148.800781 45.644531 -152.265625 60.40625 -152.265625 C 62.863281 -152.265625 64.675781 -152.203125 65.84375 -152.078125 L 65.84375 -123.90625 C 59.5 -124.300781 55.03125 -123.394531 52.4375 -121.1875 C 49.84375 -118.988281 48.546875 -115.039062 48.546875 -109.34375 L 48.546875 -108.375 L 66.421875 -108.375 Z M 66.421875 -80.796875 "/></g></g></g><g fill="#ffffff" fill-opacity="1"><g transform="translate(869.379867, 222.509473)"><g><path d="M 28.75 -119.640625 C 22.914062 -119.640625 18.15625 -121.351562 14.46875 -124.78125 C 10.78125 -128.21875 8.9375 -132.457031 8.9375 -137.5 C 8.9375 -142.6875 10.78125 -146.992188 14.46875 -150.421875 C 18.15625 -153.847656 22.914062 -155.5625 28.75 -155.5625 C 34.445312 -155.5625 39.140625 -153.847656 42.828125 -150.421875 C 46.515625 -146.992188 48.359375 -142.6875 48.359375 -137.5 C 48.359375 -132.457031 46.515625 -128.21875 42.828125 -124.78125 C 39.140625 -121.351562 34.445312 -119.640625 28.75 -119.640625 Z M 45.25 -108.375 L 45.25 0 L 12.046875 0 L 12.046875 -108.375 Z M 45.25 -108.375 "/></g></g></g><g fill="#ffffff" fill-opacity="1"><g transform="translate(916.760613, 222.509473)"><g><path d="M 5.4375 -54.375 C 5.4375 -65.507812 7.539062 -75.285156 11.75 -83.703125 C 15.957031 -92.117188 21.6875 -98.59375 28.9375 -103.125 C 36.1875 -107.65625 44.28125 -109.921875 53.21875 -109.921875 C 60.332031 -109.921875 66.835938 -108.429688 72.734375 -105.453125 C 78.628906 -102.484375 83.257812 -98.472656 86.625 -93.421875 L 86.625 -143.71875 L 119.828125 -143.71875 L 119.828125 0 L 86.625 0 L 86.625 -15.53125 C 83.507812 -10.351562 79.070312 -6.210938 73.3125 -3.109375 C 67.550781 -0.00390625 60.851562 1.546875 53.21875 1.546875 C 44.28125 1.546875 36.1875 -0.75 28.9375 -5.34375 C 21.6875 -9.9375 15.957031 -16.472656 11.75 -24.953125 C 7.539062 -33.429688 5.4375 -43.238281 5.4375 -54.375 Z M 86.625 -54.1875 C 86.625 -62.46875 84.320312 -69.003906 79.71875 -73.796875 C 75.125 -78.585938 69.523438 -80.984375 62.921875 -80.984375 C 56.316406 -80.984375 50.71875 -78.617188 46.125 -73.890625 C 41.53125 -69.171875 39.234375 -62.664062 39.234375 -54.375 C 39.234375 -46.09375 41.53125 -39.523438 46.125 -34.671875 C 50.71875 -29.816406 56.316406 -27.390625 62.921875 -27.390625 C 69.523438 -27.390625 75.125 -29.78125 79.71875 -34.5625 C 84.320312 -39.351562 86.625 -45.894531 86.625 -54.1875 Z M 86.625 -54.1875 "/></g></g></g><g fill="#ffffff" fill-opacity="1"><g transform="translate(1038.712001, 222.509473)"><g><path d="M 114.203125 -55.9375 C 114.203125 -52.832031 114.007812 -49.59375 113.625 -46.21875 L 38.453125 -46.21875 C 38.972656 -39.488281 41.140625 -34.34375 44.953125 -30.78125 C 48.773438 -27.21875 53.472656 -25.4375 59.046875 -25.4375 C 67.328125 -25.4375 73.085938 -28.9375 76.328125 -35.9375 L 111.671875 -35.9375 C 109.859375 -28.8125 106.585938 -22.398438 101.859375 -16.703125 C 97.140625 -11.003906 91.21875 -6.535156 84.09375 -3.296875 C 76.976562 -0.0664062 69.015625 1.546875 60.203125 1.546875 C 49.585938 1.546875 40.132812 -0.71875 31.84375 -5.25 C 23.5625 -9.78125 17.085938 -16.253906 12.421875 -24.671875 C 7.765625 -33.085938 5.4375 -42.925781 5.4375 -54.1875 C 5.4375 -65.445312 7.734375 -75.285156 12.328125 -83.703125 C 16.929688 -92.117188 23.375 -98.59375 31.65625 -103.125 C 39.945312 -107.65625 49.460938 -109.921875 60.203125 -109.921875 C 70.691406 -109.921875 80.015625 -107.71875 88.171875 -103.3125 C 96.328125 -98.914062 102.703125 -92.640625 107.296875 -84.484375 C 111.898438 -76.328125 114.203125 -66.8125 114.203125 -55.9375 Z M 80.21875 -64.671875 C 80.21875 -70.367188 78.273438 -74.898438 74.390625 -78.265625 C 70.503906 -81.628906 65.644531 -83.3125 59.8125 -83.3125 C 54.25 -83.3125 49.554688 -81.691406 45.734375 -78.453125 C 41.921875 -75.222656 39.5625 -70.628906 38.65625 -64.671875 Z M 80.21875 -64.671875 "/></g></g></g><g fill="#ffffff" fill-opacity="1"><g transform="translate(1148.429127, 222.509473)"><g><path d="M 78.078125 -109.546875 C 90.765625 -109.546875 100.894531 -105.429688 108.46875 -97.203125 C 116.039062 -88.984375 119.828125 -77.6875 119.828125 -63.3125 L 119.828125 0 L 86.8125 0 L 86.8125 -58.84375 C 86.8125 -66.09375 84.929688 -71.722656 81.171875 -75.734375 C 77.421875 -79.753906 72.375 -81.765625 66.03125 -81.765625 C 59.6875 -81.765625 54.632812 -79.753906 50.875 -75.734375 C 47.125 -71.722656 45.25 -66.09375 45.25 -58.84375 L 45.25 0 L 12.046875 0 L 12.046875 -108.375 L 45.25 -108.375 L 45.25 -94 C 48.613281 -98.789062 53.144531 -102.578125 58.84375 -105.359375 C 64.539062 -108.148438 70.953125 -109.546875 78.078125 -109.546875 Z M 78.078125 -109.546875 "/></g></g></g><g fill="#ffffff" fill-opacity="1"><g transform="translate(1269.409539, 222.509473)"><g><path d="M 5.4375 -54.1875 C 5.4375 -65.445312 7.734375 -75.285156 12.328125 -83.703125 C 16.929688 -92.117188 23.34375 -98.59375 31.5625 -103.125 C 39.78125 -107.65625 49.195312 -109.921875 59.8125 -109.921875 C 73.414062 -109.921875 84.78125 -106.359375 93.90625 -99.234375 C 103.03125 -92.117188 109.019531 -82.085938 111.875 -69.140625 L 76.515625 -69.140625 C 73.546875 -77.429688 67.785156 -81.578125 59.234375 -81.578125 C 53.148438 -81.578125 48.296875 -79.210938 44.671875 -74.484375 C 41.046875 -69.753906 39.234375 -62.988281 39.234375 -54.1875 C 39.234375 -45.382812 41.046875 -38.617188 44.671875 -33.890625 C 48.296875 -29.160156 53.148438 -26.796875 59.234375 -26.796875 C 67.785156 -26.796875 73.546875 -30.941406 76.515625 -39.234375 L 111.875 -39.234375 C 109.019531 -26.546875 102.992188 -16.578125 93.796875 -9.328125 C 84.609375 -2.078125 73.28125 1.546875 59.8125 1.546875 C 49.195312 1.546875 39.78125 -0.71875 31.5625 -5.25 C 23.34375 -9.78125 16.929688 -16.253906 12.328125 -24.671875 C 7.734375 -33.085938 5.4375 -42.925781 5.4375 -54.1875 Z M 5.4375 -54.1875 "/></g></g></g><g fill="#ffffff" fill-opacity="1"><g transform="translate(1376.990543, 222.509473)"><g><path d="M 114.203125 -55.9375 C 114.203125 -52.832031 114.007812 -49.59375 113.625 -46.21875 L 38.453125 -46.21875 C 38.972656 -39.488281 41.140625 -34.34375 44.953125 -30.78125 C 48.773438 -27.21875 53.472656 -25.4375 59.046875 -25.4375 C 67.328125 -25.4375 73.085938 -28.9375 76.328125 -35.9375 L 111.671875 -35.9375 C 109.859375 -28.8125 106.585938 -22.398438 101.859375 -16.703125 C 97.140625 -11.003906 91.21875 -6.535156 84.09375 -3.296875 C 76.976562 -0.0664062 69.015625 1.546875 60.203125 1.546875 C 49.585938 1.546875 40.132812 -0.71875 31.84375 -5.25 C 23.5625 -9.78125 17.085938 -16.253906 12.421875 -24.671875 C 7.765625 -33.085938 5.4375 -42.925781 5.4375 -54.1875 C 5.4375 -65.445312 7.734375 -75.285156 12.328125 -83.703125 C 16.929688 -92.117188 23.375 -98.59375 31.65625 -103.125 C 39.945312 -107.65625 49.460938 -109.921875 60.203125 -109.921875 C 70.691406 -109.921875 80.015625 -107.71875 88.171875 -103.3125 C 96.328125 -98.914062 102.703125 -92.640625 107.296875 -84.484375 C 111.898438 -76.328125 114.203125 -66.8125 114.203125 -55.9375 Z M 80.21875 -64.671875 C 80.21875 -70.367188 78.273438 -74.898438 74.390625 -78.265625 C 70.503906 -81.628906 65.644531 -83.3125 59.8125 -83.3125 C 54.25 -83.3125 49.554688 -81.691406 45.734375 -78.453125 C 41.921875 -75.222656 39.5625 -70.628906 38.65625 -64.671875 Z M 80.21875 -64.671875 "/></g></g></g><g fill="#d5ff3f" fill-opacity="1"><g transform="translate(1486.733977, 222.509473)"><g/></g></g><g fill="#ffffff" fill-opacity="1"><g transform="translate(312.563172, 289.899575)"><g><path d="M 3.59375 0 L 3.59375 -45.984375 L 41.546875 -45.984375 L 41.546875 -41.15625 L 8.875 -41.15625 L 8.875 -26.09375 L 38.9375 -26.09375 L 38.9375 -21.390625 L 8.875 -21.390625 L 8.875 -4.828125 L 42.203125 -4.828125 L 42.203125 0 Z M 3.59375 0 "/></g></g></g><g fill="#ffffff" fill-opacity="1"><g transform="translate(354.544703, 289.899575)"><g><path d="M 3.328125 -14.8125 L 3.328125 -19.375 L 29.359375 -19.375 L 29.359375 -14.8125 Z M 3.328125 -14.8125 "/></g></g></g><g fill="#ffffff" fill-opacity="1"><g transform="translate(385.508834, 289.899575)"><g><path d="M 30.140625 1.625 C 24.484375 1.625 19.585938 0.613281 15.453125 -1.40625 C 11.328125 -3.425781 8.132812 -6.269531 5.875 -9.9375 C 3.613281 -13.613281 2.484375 -17.957031 2.484375 -22.96875 C 2.484375 -28.007812 3.535156 -32.363281 5.640625 -36.03125 C 7.753906 -39.707031 10.742188 -42.554688 14.609375 -44.578125 C 18.484375 -46.609375 23.070312 -47.625 28.375 -47.625 C 32.113281 -47.625 35.535156 -46.976562 38.640625 -45.6875 C 41.753906 -44.40625 44.410156 -42.578125 46.609375 -40.203125 C 48.804688 -37.835938 50.363281 -35.023438 51.28125 -31.765625 L 46.25 -30.140625 C 45.289062 -34.003906 43.203125 -37.078125 39.984375 -39.359375 C 36.765625 -41.648438 32.894531 -42.796875 28.375 -42.796875 C 24.195312 -42.796875 20.578125 -41.988281 17.515625 -40.375 C 14.453125 -38.769531 12.082031 -36.476562 10.40625 -33.5 C 8.726562 -30.519531 7.890625 -27.007812 7.890625 -22.96875 C 7.929688 -18.96875 8.851562 -15.476562 10.65625 -12.5 C 12.46875 -9.519531 15.035156 -7.222656 18.359375 -5.609375 C 21.691406 -4.003906 25.617188 -3.203125 30.140625 -3.203125 C 33.617188 -3.203125 36.757812 -3.796875 39.5625 -4.984375 C 42.363281 -6.179688 44.722656 -7.878906 46.640625 -10.078125 C 48.554688 -12.273438 49.835938 -14.851562 50.484375 -17.8125 L 55.640625 -16.375 C 54.773438 -12.71875 53.15625 -9.539062 50.78125 -6.84375 C 48.414062 -4.15625 45.46875 -2.070312 41.9375 -0.59375 C 38.414062 0.882812 34.484375 1.625 30.140625 1.625 Z M 30.140625 1.625 "/></g></g></g><g fill="#ffffff" fill-opacity="1"><g transform="translate(441.115481, 289.899575)"><g><path d="M 30.46875 1.625 C 24.894531 1.625 20.007812 0.59375 15.8125 -1.46875 C 11.625 -3.53125 8.351562 -6.410156 6 -10.109375 C 3.65625 -13.804688 2.484375 -18.09375 2.484375 -22.96875 C 2.484375 -27.875 3.65625 -32.175781 6 -35.875 C 8.351562 -39.570312 11.625 -42.453125 15.8125 -44.515625 C 20.007812 -46.585938 24.894531 -47.625 30.46875 -47.625 C 36.070312 -47.625 40.972656 -46.585938 45.171875 -44.515625 C 49.367188 -42.453125 52.640625 -39.570312 54.984375 -35.875 C 57.335938 -32.175781 58.515625 -27.875 58.515625 -22.96875 C 58.515625 -18.09375 57.335938 -13.804688 54.984375 -10.109375 C 52.640625 -6.410156 49.367188 -3.53125 45.171875 -1.46875 C 40.972656 0.59375 36.070312 1.625 30.46875 1.625 Z M 30.46875 -3.203125 C 34.945312 -3.203125 38.878906 -4.035156 42.265625 -5.703125 C 45.660156 -7.378906 48.300781 -9.695312 50.1875 -12.65625 C 52.082031 -15.613281 53.03125 -19.050781 53.03125 -22.96875 C 53.03125 -26.925781 52.082031 -30.378906 50.1875 -33.328125 C 48.300781 -36.285156 45.660156 -38.601562 42.265625 -40.28125 C 38.878906 -41.957031 34.945312 -42.796875 30.46875 -42.796875 C 25.988281 -42.796875 22.050781 -41.957031 18.65625 -40.28125 C 15.257812 -38.601562 12.613281 -36.285156 10.71875 -33.328125 C 8.832031 -30.378906 7.890625 -26.925781 7.890625 -22.96875 C 7.890625 -19.050781 8.832031 -15.613281 10.71875 -12.65625 C 12.613281 -9.695312 15.257812 -7.378906 18.65625 -5.703125 C 22.050781 -4.035156 25.988281 -3.203125 30.46875 -3.203125 Z M 30.46875 -3.203125 "/></g></g></g><g fill="#ffffff" fill-opacity="1"><g transform="translate(500.307624, 289.899575)"><g><path d="M 3.59375 0 L 3.59375 -45.984375 L 11.671875 -45.984375 L 31.515625 -5.484375 L 31.578125 -5.484375 L 51.34375 -45.984375 L 59.421875 -45.984375 L 59.421875 0 L 54.015625 0 L 54.015625 -39.203125 L 53.890625 -39.203125 L 34.640625 0 L 28.4375 0 L 9.140625 -39.140625 L 9 -39.140625 L 9 0 Z M 3.59375 0 "/></g></g></g><g fill="#ffffff" fill-opacity="1"><g transform="translate(561.585904, 289.899575)"><g><path d="M 3.59375 0 L 3.59375 -45.984375 L 11.671875 -45.984375 L 31.515625 -5.484375 L 31.578125 -5.484375 L 51.34375 -45.984375 L 59.421875 -45.984375 L 59.421875 0 L 54.015625 0 L 54.015625 -39.203125 L 53.890625 -39.203125 L 34.640625 0 L 28.4375 0 L 9.140625 -39.140625 L 9 -39.140625 L 9 0 Z M 3.59375 0 "/></g></g></g><g fill="#ffffff" fill-opacity="1"><g transform="translate(622.864183, 289.899575)"><g><path d="M 3.59375 0 L 3.59375 -45.984375 L 41.546875 -45.984375 L 41.546875 -41.15625 L 8.875 -41.15625 L 8.875 -26.09375 L 38.9375 -26.09375 L 38.9375 -21.390625 L 8.875 -21.390625 L 8.875 -4.828125 L 42.203125 -4.828125 L 42.203125 0 Z M 3.59375 0 "/></g></g></g><g fill="#ffffff" fill-opacity="1"><g transform="translate(664.845714, 289.899575)"><g><path d="M 43.765625 1.3125 C 41.898438 1.3125 40.398438 0.789062 39.265625 -0.25 C 38.140625 -1.300781 37.296875 -2.628906 36.734375 -4.234375 L 33.40625 -13.5 C 32.789062 -15.195312 31.863281 -16.578125 30.625 -17.640625 C 29.382812 -18.710938 27.941406 -19.25 26.296875 -19.25 L 9 -19.25 L 9 0 L 3.59375 0 L 3.59375 -45.984375 L 30.59375 -45.984375 C 33.851562 -45.984375 36.722656 -45.425781 39.203125 -44.3125 C 41.679688 -43.207031 43.601562 -41.664062 44.96875 -39.6875 C 46.34375 -37.71875 47.03125 -35.40625 47.03125 -32.75 C 47.03125 -29.445312 45.84375 -26.660156 43.46875 -24.390625 C 41.101562 -22.128906 37.921875 -20.785156 33.921875 -20.359375 L 33.921875 -20.28125 C 35.179688 -19.632812 36.210938 -18.773438 37.015625 -17.703125 C 37.828125 -16.640625 38.46875 -15.414062 38.9375 -14.03125 L 41.6875 -6.125 C 41.945312 -5.300781 42.316406 -4.617188 42.796875 -4.078125 C 43.273438 -3.535156 43.90625 -3.265625 44.6875 -3.265625 C 45.425781 -3.265625 46.15625 -3.535156 46.875 -4.078125 C 47.59375 -4.617188 48.210938 -5.347656 48.734375 -6.265625 L 51.46875 -3.0625 C 50.550781 -1.800781 49.453125 -0.757812 48.171875 0.0625 C 46.890625 0.894531 45.421875 1.3125 43.765625 1.3125 Z M 9 -24.078125 L 30.40625 -24.078125 C 33.75 -24.078125 36.453125 -24.859375 38.515625 -26.421875 C 40.585938 -27.984375 41.625 -30.023438 41.625 -32.546875 C 41.625 -35.117188 40.585938 -37.195312 38.515625 -38.78125 C 36.453125 -40.363281 33.75 -41.15625 30.40625 -41.15625 L 9 -41.15625 Z M 9 -24.078125 "/></g></g></g><g fill="#ffffff" fill-opacity="1"><g transform="translate(714.585075, 289.899575)"><g><path d="M 30.140625 1.625 C 24.484375 1.625 19.585938 0.613281 15.453125 -1.40625 C 11.328125 -3.425781 8.132812 -6.269531 5.875 -9.9375 C 3.613281 -13.613281 2.484375 -17.957031 2.484375 -22.96875 C 2.484375 -28.007812 3.535156 -32.363281 5.640625 -36.03125 C 7.753906 -39.707031 10.742188 -42.554688 14.609375 -44.578125 C 18.484375 -46.609375 23.070312 -47.625 28.375 -47.625 C 32.113281 -47.625 35.535156 -46.976562 38.640625 -45.6875 C 41.753906 -44.40625 44.410156 -42.578125 46.609375 -40.203125 C 48.804688 -37.835938 50.363281 -35.023438 51.28125 -31.765625 L 46.25 -30.140625 C 45.289062 -34.003906 43.203125 -37.078125 39.984375 -39.359375 C 36.765625 -41.648438 32.894531 -42.796875 28.375 -42.796875 C 24.195312 -42.796875 20.578125 -41.988281 17.515625 -40.375 C 14.453125 -38.769531 12.082031 -36.476562 10.40625 -33.5 C 8.726562 -30.519531 7.890625 -27.007812 7.890625 -22.96875 C 7.929688 -18.96875 8.851562 -15.476562 10.65625 -12.5 C 12.46875 -9.519531 15.035156 -7.222656 18.359375 -5.609375 C 21.691406 -4.003906 25.617188 -3.203125 30.140625 -3.203125 C 33.617188 -3.203125 36.757812 -3.796875 39.5625 -4.984375 C 42.363281 -6.179688 44.722656 -7.878906 46.640625 -10.078125 C 48.554688 -12.273438 49.835938 -14.851562 50.484375 -17.8125 L 55.640625 -16.375 C 54.773438 -12.71875 53.15625 -9.539062 50.78125 -6.84375 C 48.414062 -4.15625 45.46875 -2.070312 41.9375 -0.59375 C 38.414062 0.882812 34.484375 1.625 30.140625 1.625 Z M 30.140625 1.625 "/></g></g></g><g fill="#ffffff" fill-opacity="1"><g transform="translate(770.191723, 289.899575)"><g><path d="M 3.59375 0 L 3.59375 -45.984375 L 41.546875 -45.984375 L 41.546875 -41.15625 L 8.875 -41.15625 L 8.875 -26.09375 L 38.9375 -26.09375 L 38.9375 -21.390625 L 8.875 -21.390625 L 8.875 -4.828125 L 42.203125 -4.828125 L 42.203125 0 Z M 3.59375 0 "/></g></g></g><g fill="#ffffff" fill-opacity="1"><g transform="translate(812.173253, 289.899575)"><g/></g></g><g fill="#ffffff" fill-opacity="1"><g transform="translate(829.577557, 289.899575)"><g><path d="M 17.28125 0 L 0.328125 -45.984375 L 6.0625 -45.984375 L 21.140625 -5.28125 L 21.265625 -5.28125 L 34.765625 -45.984375 L 43.0625 -45.984375 L 56.625 -5.28125 L 56.75 -5.28125 L 71.6875 -45.984375 L 77.4375 -45.984375 L 60.53125 0 L 52.84375 0 L 39.015625 -40.703125 L 38.875 -40.703125 L 24.984375 0 Z M 17.28125 0 "/></g></g></g><g fill="#ffffff" fill-opacity="1"><g transform="translate(905.589156, 289.899575)"><g><path d="M 3.59375 0 L 3.59375 -45.984375 L 9 -45.984375 L 9 0 Z M 3.59375 0 "/></g></g></g><g fill="#ffffff" fill-opacity="1"><g transform="translate(916.47426, 289.899575)"><g><path d="M 19.171875 0 L 19.171875 -41.15625 L 0.515625 -41.15625 L 0.515625 -45.984375 L 43.25 -45.984375 L 43.25 -41.15625 L 24.59375 -41.15625 L 24.59375 0 Z M 19.171875 0 "/></g></g></g><g fill="#ffffff" fill-opacity="1"><g transform="translate(958.455821, 289.899575)"><g><path d="M 3.59375 0 L 3.59375 -45.984375 L 9 -45.984375 L 9 -26.421875 L 40.96875 -26.421875 L 40.96875 -45.984375 L 46.375 -45.984375 L 46.375 0 L 40.96875 0 L 40.96875 -21.65625 L 9 -21.65625 L 9 0 Z M 3.59375 0 "/></g></g></g><g fill="#ffffff" fill-opacity="1"><g transform="translate(1006.695731, 289.899575)"><g/></g></g><g fill="#d5ff3f" fill-opacity="1"><g transform="translate(1024.149655, 289.899575)"><g><path d="M 30.140625 1.625 C 24.484375 1.625 19.585938 0.613281 15.453125 -1.40625 C 11.328125 -3.425781 8.132812 -6.269531 5.875 -9.9375 C 3.613281 -13.613281 2.484375 -17.957031 2.484375 -22.96875 C 2.484375 -28.007812 3.535156 -32.363281 5.640625 -36.03125 C 7.753906 -39.707031 10.742188 -42.554688 14.609375 -44.578125 C 18.484375 -46.609375 23.070312 -47.625 28.375 -47.625 C 32.113281 -47.625 35.535156 -46.976562 38.640625 -45.6875 C 41.753906 -44.40625 44.410156 -42.578125 46.609375 -40.203125 C 48.804688 -37.835938 50.363281 -35.023438 51.28125 -31.765625 L 46.25 -30.140625 C 45.289062 -34.003906 43.203125 -37.078125 39.984375 -39.359375 C 36.765625 -41.648438 32.894531 -42.796875 28.375 -42.796875 C 24.195312 -42.796875 20.578125 -41.988281 17.515625 -40.375 C 14.453125 -38.769531 12.082031 -36.476562 10.40625 -33.5 C 8.726562 -30.519531 7.890625 -27.007812 7.890625 -22.96875 C 7.929688 -18.96875 8.851562 -15.476562 10.65625 -12.5 C 12.46875 -9.519531 15.035156 -7.222656 18.359375 -5.609375 C 21.691406 -4.003906 25.617188 -3.203125 30.140625 -3.203125 C 33.617188 -3.203125 36.757812 -3.796875 39.5625 -4.984375 C 42.363281 -6.179688 44.722656 -7.878906 46.640625 -10.078125 C 48.554688 -12.273438 49.835938 -14.851562 50.484375 -17.8125 L 55.640625 -16.375 C 54.773438 -12.71875 53.15625 -9.539062 50.78125 -6.84375 C 48.414062 -4.15625 45.46875 -2.070312 41.9375 -0.59375 C 38.414062 0.882812 34.484375 1.625 30.140625 1.625 Z M 30.140625 1.625 "/></g></g></g><g fill="#d5ff3f" fill-opacity="1"><g transform="translate(1079.756303, 289.899575)"><g><path d="M 30.46875 1.625 C 24.894531 1.625 20.007812 0.59375 15.8125 -1.46875 C 11.625 -3.53125 8.351562 -6.410156 6 -10.109375 C 3.65625 -13.804688 2.484375 -18.09375 2.484375 -22.96875 C 2.484375 -27.875 3.65625 -32.175781 6 -35.875 C 8.351562 -39.570312 11.625 -42.453125 15.8125 -44.515625 C 20.007812 -46.585938 24.894531 -47.625 30.46875 -47.625 C 36.070312 -47.625 40.972656 -46.585938 45.171875 -44.515625 C 49.367188 -42.453125 52.640625 -39.570312 54.984375 -35.875 C 57.335938 -32.175781 58.515625 -27.875 58.515625 -22.96875 C 58.515625 -18.09375 57.335938 -13.804688 54.984375 -10.109375 C 52.640625 -6.410156 49.367188 -3.53125 45.171875 -1.46875 C 40.972656 0.59375 36.070312 1.625 30.46875 1.625 Z M 30.46875 -3.203125 C 34.945312 -3.203125 38.878906 -4.035156 42.265625 -5.703125 C 45.660156 -7.378906 48.300781 -9.695312 50.1875 -12.65625 C 52.082031 -15.613281 53.03125 -19.050781 53.03125 -22.96875 C 53.03125 -26.925781 52.082031 -30.378906 50.1875 -33.328125 C 48.300781 -36.285156 45.660156 -38.601562 42.265625 -40.28125 C 38.878906 -41.957031 34.945312 -42.796875 30.46875 -42.796875 C 25.988281 -42.796875 22.050781 -41.957031 18.65625 -40.28125 C 15.257812 -38.601562 12.613281 -36.285156 10.71875 -33.328125 C 8.832031 -30.378906 7.890625 -26.925781 7.890625 -22.96875 C 7.890625 -19.050781 8.832031 -15.613281 10.71875 -12.65625 C 12.613281 -9.695312 15.257812 -7.378906 18.65625 -5.703125 C 22.050781 -4.035156 25.988281 -3.203125 30.46875 -3.203125 Z M 30.46875 -3.203125 "/></g></g></g><g fill="#d5ff3f" fill-opacity="1"><g transform="translate(1138.948446, 289.899575)"><g><path d="M 3.59375 0 L 3.59375 -45.984375 L 10.828125 -45.984375 L 40.96875 -6.265625 L 41.03125 -6.265625 L 41.03125 -45.984375 L 46.515625 -45.984375 L 46.515625 0 L 39.265625 0 L 9.140625 -39.734375 L 9 -39.734375 L 9 0 Z M 3.59375 0 "/></g></g></g><g fill="#d5ff3f" fill-opacity="1"><g transform="translate(1187.318782, 289.899575)"><g><path d="M 3.59375 0 L 3.59375 -45.984375 L 39.140625 -45.984375 L 39.140625 -41.15625 L 9 -41.15625 L 9 -25.375 L 35.296875 -25.375 L 35.296875 -20.671875 L 9 -20.671875 L 9 0 Z M 3.59375 0 "/></g></g></g><g fill="#d5ff3f" fill-opacity="1"><g transform="translate(1225.910348, 289.899575)"><g><path d="M 3.59375 0 L 3.59375 -45.984375 L 9 -45.984375 L 9 0 Z M 3.59375 0 "/></g></g></g><g fill="#d5ff3f" fill-opacity="1"><g transform="translate(1236.795421, 289.899575)"><g><path d="M 3.59375 0 L 3.59375 -45.984375 L 25.5 -45.984375 C 33.675781 -45.984375 39.960938 -43.992188 44.359375 -40.015625 C 48.753906 -36.035156 50.953125 -30.351562 50.953125 -22.96875 C 50.953125 -15.613281 48.753906 -9.945312 44.359375 -5.96875 C 39.960938 -1.988281 33.675781 0 25.5 0 Z M 9 -4.828125 L 25.5 -4.828125 C 31.9375 -4.828125 36.882812 -6.390625 40.34375 -9.515625 C 43.800781 -12.648438 45.53125 -17.132812 45.53125 -22.96875 C 45.53125 -28.832031 43.800781 -33.328125 40.34375 -36.453125 C 36.882812 -39.585938 31.9375 -41.15625 25.5 -41.15625 L 9 -41.15625 Z M 9 -4.828125 "/></g></g></g><g fill="#d5ff3f" fill-opacity="1"><g transform="translate(1288.490523, 289.899575)"><g><path d="M 3.59375 0 L 3.59375 -45.984375 L 41.546875 -45.984375 L 41.546875 -41.15625 L 8.875 -41.15625 L 8.875 -26.09375 L 38.9375 -26.09375 L 38.9375 -21.390625 L 8.875 -21.390625 L 8.875 -4.828125 L 42.203125 -4.828125 L 42.203125 0 Z M 3.59375 0 "/></g></g></g><g fill="#d5ff3f" fill-opacity="1"><g transform="translate(1330.472054, 289.899575)"><g><path d="M 3.59375 0 L 3.59375 -45.984375 L 10.828125 -45.984375 L 40.96875 -6.265625 L 41.03125 -6.265625 L 41.03125 -45.984375 L 46.515625 -45.984375 L 46.515625 0 L 39.265625 0 L 9.140625 -39.734375 L 9 -39.734375 L 9 0 Z M 3.59375 0 "/></g></g></g><g fill="#d5ff3f" fill-opacity="1"><g transform="translate(1378.84239, 289.899575)"><g><path d="M 30.140625 1.625 C 24.484375 1.625 19.585938 0.613281 15.453125 -1.40625 C 11.328125 -3.425781 8.132812 -6.269531 5.875 -9.9375 C 3.613281 -13.613281 2.484375 -17.957031 2.484375 -22.96875 C 2.484375 -28.007812 3.535156 -32.363281 5.640625 -36.03125 C 7.753906 -39.707031 10.742188 -42.554688 14.609375 -44.578125 C 18.484375 -46.609375 23.070312 -47.625 28.375 -47.625 C 32.113281 -47.625 35.535156 -46.976562 38.640625 -45.6875 C 41.753906 -44.40625 44.410156 -42.578125 46.609375 -40.203125 C 48.804688 -37.835938 50.363281 -35.023438 51.28125 -31.765625 L 46.25 -30.140625 C 45.289062 -34.003906 43.203125 -37.078125 39.984375 -39.359375 C 36.765625 -41.648438 32.894531 -42.796875 28.375 -42.796875 C 24.195312 -42.796875 20.578125 -41.988281 17.515625 -40.375 C 14.453125 -38.769531 12.082031 -36.476562 10.40625 -33.5 C 8.726562 -30.519531 7.890625 -27.007812 7.890625 -22.96875 C 7.929688 -18.96875 8.851562 -15.476562 10.65625 -12.5 C 12.46875 -9.519531 15.035156 -7.222656 18.359375 -5.609375 C 21.691406 -4.003906 25.617188 -3.203125 30.140625 -3.203125 C 33.617188 -3.203125 36.757812 -3.796875 39.5625 -4.984375 C 42.363281 -6.179688 44.722656 -7.878906 46.640625 -10.078125 C 48.554688 -12.273438 49.835938 -14.851562 50.484375 -17.8125 L 55.640625 -16.375 C 54.773438 -12.71875 53.15625 -9.539062 50.78125 -6.84375 C 48.414062 -4.15625 45.46875 -2.070312 41.9375 -0.59375 C 38.414062 0.882812 34.484375 1.625 30.140625 1.625 Z M 30.140625 1.625 "/></g></g></g><g fill="#d5ff3f" fill-opacity="1"><g transform="translate(1434.449037, 289.899575)"><g><path d="M 3.59375 0 L 3.59375 -45.984375 L 41.546875 -45.984375 L 41.546875 -41.15625 L 8.875 -41.15625 L 8.875 -26.09375 L 38.9375 -26.09375 L 38.9375 -21.390625 L 8.875 -21.390625 L 8.875 -4.828125 L 42.203125 -4.828125 L 42.203125 0 Z M 3.59375 0 "/></g></g></g></svg>