<svg xmlns="http://www.w3.org/2000/svg" xmlns:xlink="http://www.w3.org/1999/xlink" width="500" zoomAndPan="magnify" viewBox="0 0 375 82.499998" height="110" preserveAspectRatio="xMidYMid meet" version="1.0"><defs><g/><clipPath id="e07748bf2b"><path d="M 1.128906 0 L 62.996094 0 L 62.996094 81.664062 L 1.128906 81.664062 Z M 1.128906 0 " clip-rule="nonzero"/></clipPath></defs><g clip-path="url(#e07748bf2b)"><path fill="#000000" d="M 62.960938 74.050781 L 53.277344 22.292969 C 53.277344 22.277344 53.277344 22.261719 53.261719 22.246094 C 53.261719 22.230469 53.261719 22.230469 53.246094 22.210938 C 53.226562 22.195312 53.226562 22.164062 53.210938 22.148438 C 53.210938 22.148438 53.210938 22.128906 53.210938 22.128906 C 53.195312 22.097656 53.179688 22.082031 53.164062 22.066406 C 53.164062 22.066406 53.144531 22.066406 53.144531 22.050781 C 53.128906 22.03125 53.113281 22.015625 53.097656 22 L 53.082031 21.984375 C 53.0625 21.96875 53.046875 21.949219 53.015625 21.949219 L 53 21.949219 C 52.984375 21.933594 52.949219 21.933594 52.933594 21.933594 L 52.917969 21.933594 C 52.902344 21.933594 52.867188 21.933594 52.851562 21.933594 L 42.988281 21.933594 L 42.496094 10.0625 C 42.253906 4.425781 37.820312 0 32.40625 0 C 29.96875 0 27.613281 0.914062 25.8125 2.546875 C 23.964844 4.230469 22.773438 6.484375 22.429688 8.949219 L 20.5625 21.933594 L 12.207031 21.933594 C 11.992188 21.933594 11.796875 22.082031 11.746094 22.308594 L 1.179688 75.277344 C 1.132812 75.523438 1.277344 75.765625 1.523438 75.816406 C 1.539062 75.816406 1.558594 75.816406 1.574219 75.816406 L 48.617188 81.664062 L 48.664062 81.664062 C 48.695312 81.664062 48.730469 81.664062 48.761719 81.644531 L 48.796875 81.644531 C 48.828125 81.644531 48.84375 81.628906 48.878906 81.613281 L 48.894531 81.613281 L 62.714844 74.542969 C 62.894531 74.460938 62.992188 74.246094 62.960938 74.050781 Z M 23.34375 9.066406 C 24.03125 4.328125 27.84375 0.898438 32.40625 0.898438 C 37.328125 0.898438 41.351562 4.949219 41.566406 10.09375 L 42.054688 21.917969 L 21.480469 21.917969 Z M 12.582031 22.832031 L 20.433594 22.832031 L 19.320312 30.542969 C 18.8125 30.6875 18.46875 31.164062 18.46875 31.703125 C 18.4375 32.339844 18.910156 32.878906 19.550781 32.910156 C 20.1875 32.941406 20.726562 32.46875 20.761719 31.832031 C 20.761719 31.78125 20.761719 31.75 20.761719 31.703125 C 20.761719 31.292969 20.5625 30.917969 20.21875 30.6875 L 21.347656 22.832031 L 42.074219 22.832031 L 42.398438 30.625 C 42.007812 30.835938 41.761719 31.246094 41.761719 31.703125 C 41.730469 32.339844 42.234375 32.859375 42.859375 32.894531 C 43.496094 32.925781 44.019531 32.421875 44.050781 31.800781 C 44.050781 31.765625 44.050781 31.734375 44.050781 31.703125 C 44.050781 31.210938 43.757812 30.769531 43.316406 30.589844 L 42.988281 22.832031 L 52.296875 22.832031 L 49.417969 63.910156 L 48.253906 80.683594 L 2.179688 74.964844 Z M 49.1875 80.421875 L 50.496094 61.71875 L 53.015625 25.984375 L 61.980469 73.886719 Z M 49.1875 80.421875 " fill-opacity="1" fill-rule="nonzero"/></g><g fill="#badf36" fill-opacity="1"><g transform="translate(68.573204, 53.324937)"><g><path d="M 28.21875 -13.828125 C 28.21875 -13.054688 28.171875 -12.253906 28.078125 -11.421875 L 9.5 -11.421875 C 9.632812 -9.753906 10.171875 -8.476562 11.109375 -7.59375 C 12.054688 -6.71875 13.21875 -6.28125 14.59375 -6.28125 C 16.632812 -6.28125 18.054688 -7.144531 18.859375 -8.875 L 27.59375 -8.875 C 27.144531 -7.113281 26.335938 -5.53125 25.171875 -4.125 C 24.003906 -2.71875 22.539062 -1.613281 20.78125 -0.8125 C 19.019531 -0.0078125 17.050781 0.390625 14.875 0.390625 C 12.25 0.390625 9.910156 -0.164062 7.859375 -1.28125 C 5.816406 -2.40625 4.21875 -4.007812 3.0625 -6.09375 C 1.914062 -8.175781 1.34375 -10.609375 1.34375 -13.390625 C 1.34375 -16.171875 1.910156 -18.601562 3.046875 -20.6875 C 4.179688 -22.769531 5.769531 -24.367188 7.8125 -25.484375 C 9.863281 -26.609375 12.21875 -27.171875 14.875 -27.171875 C 17.46875 -27.171875 19.769531 -26.625 21.78125 -25.53125 C 23.800781 -24.445312 25.378906 -22.894531 26.515625 -20.875 C 27.648438 -18.863281 28.21875 -16.515625 28.21875 -13.828125 Z M 19.828125 -15.984375 C 19.828125 -17.390625 19.34375 -18.507812 18.375 -19.34375 C 17.414062 -20.175781 16.21875 -20.59375 14.78125 -20.59375 C 13.40625 -20.59375 12.242188 -20.191406 11.296875 -19.390625 C 10.359375 -18.585938 9.773438 -17.453125 9.546875 -15.984375 Z M 19.828125 -15.984375 "/></g></g></g><g fill="#badf36" fill-opacity="1"><g transform="translate(95.687127, 53.324937)"><g><path d="M 1.34375 -13.390625 C 1.34375 -16.171875 1.910156 -18.601562 3.046875 -20.6875 C 4.179688 -22.769531 5.765625 -24.367188 7.796875 -25.484375 C 9.828125 -26.609375 12.15625 -27.171875 14.78125 -27.171875 C 18.144531 -27.171875 20.953125 -26.289062 23.203125 -24.53125 C 25.460938 -22.769531 26.941406 -20.289062 27.640625 -17.09375 L 18.90625 -17.09375 C 18.175781 -19.132812 16.753906 -20.15625 14.640625 -20.15625 C 13.140625 -20.15625 11.941406 -19.570312 11.046875 -18.40625 C 10.148438 -17.238281 9.703125 -15.566406 9.703125 -13.390625 C 9.703125 -11.210938 10.148438 -9.539062 11.046875 -8.375 C 11.941406 -7.207031 13.140625 -6.625 14.640625 -6.625 C 16.753906 -6.625 18.175781 -7.648438 18.90625 -9.703125 L 27.640625 -9.703125 C 26.941406 -6.554688 25.457031 -4.085938 23.1875 -2.296875 C 20.914062 -0.503906 18.113281 0.390625 14.78125 0.390625 C 12.15625 0.390625 9.828125 -0.164062 7.796875 -1.28125 C 5.765625 -2.40625 4.179688 -4.007812 3.046875 -6.09375 C 1.910156 -8.175781 1.34375 -10.609375 1.34375 -13.390625 Z M 1.34375 -13.390625 "/></g></g></g><g fill="#badf36" fill-opacity="1"><g transform="translate(122.273152, 53.324937)"><g><path d="M 15.171875 0.390625 C 12.546875 0.390625 10.179688 -0.164062 8.078125 -1.28125 C 5.984375 -2.40625 4.335938 -4.007812 3.140625 -6.09375 C 1.941406 -8.175781 1.34375 -10.609375 1.34375 -13.390625 C 1.34375 -16.140625 1.945312 -18.5625 3.15625 -20.65625 C 4.375 -22.757812 6.039062 -24.367188 8.15625 -25.484375 C 10.269531 -26.609375 12.640625 -27.171875 15.265625 -27.171875 C 17.890625 -27.171875 20.253906 -26.609375 22.359375 -25.484375 C 24.472656 -24.367188 26.140625 -22.757812 27.359375 -20.65625 C 28.578125 -18.5625 29.1875 -16.140625 29.1875 -13.390625 C 29.1875 -10.640625 28.566406 -8.210938 27.328125 -6.109375 C 26.097656 -4.015625 24.421875 -2.40625 22.296875 -1.28125 C 20.171875 -0.164062 17.796875 0.390625 15.171875 0.390625 Z M 15.171875 -6.71875 C 16.734375 -6.71875 18.066406 -7.289062 19.171875 -8.4375 C 20.273438 -9.59375 20.828125 -11.242188 20.828125 -13.390625 C 20.828125 -15.535156 20.289062 -17.179688 19.21875 -18.328125 C 18.144531 -19.484375 16.828125 -20.0625 15.265625 -20.0625 C 13.660156 -20.0625 12.332031 -19.492188 11.28125 -18.359375 C 10.226562 -17.222656 9.703125 -15.566406 9.703125 -13.390625 C 9.703125 -11.242188 10.21875 -9.59375 11.25 -8.4375 C 12.289062 -7.289062 13.597656 -6.71875 15.171875 -6.71875 Z M 15.171875 -6.71875 "/></g></g></g><g fill="#badf36" fill-opacity="1"><g transform="translate(150.394868, 53.324937)"><g><path d="M 37.15625 -27.078125 C 40.476562 -27.078125 43.125 -26.066406 45.09375 -24.046875 C 47.0625 -22.035156 48.046875 -19.234375 48.046875 -15.640625 L 48.046875 0 L 39.890625 0 L 39.890625 -14.546875 C 39.890625 -16.273438 39.429688 -17.609375 38.515625 -18.546875 C 37.609375 -19.492188 36.351562 -19.96875 34.75 -19.96875 C 33.15625 -19.96875 31.898438 -19.492188 30.984375 -18.546875 C 30.066406 -17.609375 29.609375 -16.273438 29.609375 -14.546875 L 29.609375 0 L 21.453125 0 L 21.453125 -14.546875 C 21.453125 -16.273438 20.992188 -17.609375 20.078125 -18.546875 C 19.171875 -19.492188 17.914062 -19.96875 16.3125 -19.96875 C 14.71875 -19.96875 13.460938 -19.492188 12.546875 -18.546875 C 11.640625 -17.609375 11.1875 -16.273438 11.1875 -14.546875 L 11.1875 0 L 2.96875 0 L 2.96875 -26.78125 L 11.1875 -26.78125 L 11.1875 -23.421875 C 12.019531 -24.546875 13.109375 -25.4375 14.453125 -26.09375 C 15.796875 -26.75 17.316406 -27.078125 19.015625 -27.078125 C 21.023438 -27.078125 22.820312 -26.644531 24.40625 -25.78125 C 25.988281 -24.914062 27.226562 -23.679688 28.125 -22.078125 C 29.050781 -23.546875 30.3125 -24.742188 31.90625 -25.671875 C 33.507812 -26.609375 35.257812 -27.078125 37.15625 -27.078125 Z M 37.15625 -27.078125 "/></g></g></g><g fill="#000000" fill-opacity="1"><g transform="translate(198.776273, 53.324937)"><g><path d="M 16.421875 -19.96875 L 12 -19.96875 L 12 0 L 3.796875 0 L 3.796875 -19.96875 L 0.8125 -19.96875 L 0.8125 -26.78125 L 3.796875 -26.78125 L 3.796875 -27.546875 C 3.796875 -30.847656 4.738281 -33.351562 6.625 -35.0625 C 8.507812 -36.769531 11.273438 -37.625 14.921875 -37.625 C 15.535156 -37.625 15.984375 -37.609375 16.265625 -37.578125 L 16.265625 -30.625 C 14.703125 -30.71875 13.597656 -30.492188 12.953125 -29.953125 C 12.316406 -29.410156 12 -28.4375 12 -27.03125 L 12 -26.78125 L 16.421875 -26.78125 Z M 16.421875 -19.96875 "/></g></g></g><g fill="#000000" fill-opacity="1"><g transform="translate(213.604669, 53.324937)"><g><path d="M 7.109375 -29.5625 C 5.660156 -29.5625 4.476562 -29.984375 3.5625 -30.828125 C 2.65625 -31.679688 2.203125 -32.734375 2.203125 -33.984375 C 2.203125 -35.265625 2.65625 -36.328125 3.5625 -37.171875 C 4.476562 -38.023438 5.660156 -38.453125 7.109375 -38.453125 C 8.515625 -38.453125 9.671875 -38.023438 10.578125 -37.171875 C 11.492188 -36.328125 11.953125 -35.265625 11.953125 -33.984375 C 11.953125 -32.734375 11.492188 -31.679688 10.578125 -30.828125 C 9.671875 -29.984375 8.515625 -29.5625 7.109375 -29.5625 Z M 11.1875 -26.78125 L 11.1875 0 L 2.96875 0 L 2.96875 -26.78125 Z M 11.1875 -26.78125 "/></g></g></g><g fill="#000000" fill-opacity="1"><g transform="translate(225.313692, 53.324937)"><g><path d="M 1.34375 -13.4375 C 1.34375 -16.1875 1.863281 -18.601562 2.90625 -20.6875 C 3.945312 -22.769531 5.363281 -24.367188 7.15625 -25.484375 C 8.945312 -26.609375 10.945312 -27.171875 13.15625 -27.171875 C 14.914062 -27.171875 16.519531 -26.800781 17.96875 -26.0625 C 19.425781 -25.320312 20.570312 -24.332031 21.40625 -23.09375 L 21.40625 -35.515625 L 29.609375 -35.515625 L 29.609375 0 L 21.40625 0 L 21.40625 -3.84375 C 20.632812 -2.5625 19.535156 -1.535156 18.109375 -0.765625 C 16.691406 0.00390625 15.039062 0.390625 13.15625 0.390625 C 10.945312 0.390625 8.945312 -0.175781 7.15625 -1.3125 C 5.363281 -2.457031 3.945312 -4.078125 2.90625 -6.171875 C 1.863281 -8.265625 1.34375 -10.6875 1.34375 -13.4375 Z M 21.40625 -13.390625 C 21.40625 -15.441406 20.835938 -17.054688 19.703125 -18.234375 C 18.566406 -19.421875 17.179688 -20.015625 15.546875 -20.015625 C 13.921875 -20.015625 12.539062 -19.429688 11.40625 -18.265625 C 10.269531 -17.097656 9.703125 -15.488281 9.703125 -13.4375 C 9.703125 -11.394531 10.269531 -9.769531 11.40625 -8.5625 C 12.539062 -7.363281 13.921875 -6.765625 15.546875 -6.765625 C 17.179688 -6.765625 18.566406 -7.351562 19.703125 -8.53125 C 20.835938 -9.71875 21.40625 -11.335938 21.40625 -13.390625 Z M 21.40625 -13.390625 "/></g></g></g><g fill="#000000" fill-opacity="1"><g transform="translate(255.451005, 53.324937)"><g><path d="M 28.21875 -13.828125 C 28.21875 -13.054688 28.171875 -12.253906 28.078125 -11.421875 L 9.5 -11.421875 C 9.632812 -9.753906 10.171875 -8.476562 11.109375 -7.59375 C 12.054688 -6.71875 13.21875 -6.28125 14.59375 -6.28125 C 16.632812 -6.28125 18.054688 -7.144531 18.859375 -8.875 L 27.59375 -8.875 C 27.144531 -7.113281 26.335938 -5.53125 25.171875 -4.125 C 24.003906 -2.71875 22.539062 -1.613281 20.78125 -0.8125 C 19.019531 -0.0078125 17.050781 0.390625 14.875 0.390625 C 12.25 0.390625 9.910156 -0.164062 7.859375 -1.28125 C 5.816406 -2.40625 4.21875 -4.007812 3.0625 -6.09375 C 1.914062 -8.175781 1.34375 -10.609375 1.34375 -13.390625 C 1.34375 -16.171875 1.910156 -18.601562 3.046875 -20.6875 C 4.179688 -22.769531 5.769531 -24.367188 7.8125 -25.484375 C 9.863281 -26.609375 12.21875 -27.171875 14.875 -27.171875 C 17.46875 -27.171875 19.769531 -26.625 21.78125 -25.53125 C 23.800781 -24.445312 25.378906 -22.894531 26.515625 -20.875 C 27.648438 -18.863281 28.21875 -16.515625 28.21875 -13.828125 Z M 19.828125 -15.984375 C 19.828125 -17.390625 19.34375 -18.507812 18.375 -19.34375 C 17.414062 -20.175781 16.21875 -20.59375 14.78125 -20.59375 C 13.40625 -20.59375 12.242188 -20.191406 11.296875 -19.390625 C 10.359375 -18.585938 9.773438 -17.453125 9.546875 -15.984375 Z M 19.828125 -15.984375 "/></g></g></g><g fill="#000000" fill-opacity="1"><g transform="translate(282.564927, 53.324937)"><g><path d="M 19.296875 -27.078125 C 22.429688 -27.078125 24.929688 -26.054688 26.796875 -24.015625 C 28.671875 -21.984375 29.609375 -19.191406 29.609375 -15.640625 L 29.609375 0 L 21.453125 0 L 21.453125 -14.546875 C 21.453125 -16.335938 20.988281 -17.726562 20.0625 -18.71875 C 19.132812 -19.707031 17.882812 -20.203125 16.3125 -20.203125 C 14.75 -20.203125 13.503906 -19.707031 12.578125 -18.71875 C 11.648438 -17.726562 11.1875 -16.335938 11.1875 -14.546875 L 11.1875 0 L 2.96875 0 L 2.96875 -26.78125 L 11.1875 -26.78125 L 11.1875 -23.234375 C 12.019531 -24.421875 13.140625 -25.359375 14.546875 -26.046875 C 15.953125 -26.734375 17.535156 -27.078125 19.296875 -27.078125 Z M 19.296875 -27.078125 "/></g></g></g><g fill="#000000" fill-opacity="1"><g transform="translate(312.462293, 53.324937)"><g><path d="M 1.34375 -13.390625 C 1.34375 -16.171875 1.910156 -18.601562 3.046875 -20.6875 C 4.179688 -22.769531 5.765625 -24.367188 7.796875 -25.484375 C 9.828125 -26.609375 12.15625 -27.171875 14.78125 -27.171875 C 18.144531 -27.171875 20.953125 -26.289062 23.203125 -24.53125 C 25.460938 -22.769531 26.941406 -20.289062 27.640625 -17.09375 L 18.90625 -17.09375 C 18.175781 -19.132812 16.753906 -20.15625 14.640625 -20.15625 C 13.140625 -20.15625 11.941406 -19.570312 11.046875 -18.40625 C 10.148438 -17.238281 9.703125 -15.566406 9.703125 -13.390625 C 9.703125 -11.210938 10.148438 -9.539062 11.046875 -8.375 C 11.941406 -7.207031 13.140625 -6.625 14.640625 -6.625 C 16.753906 -6.625 18.175781 -7.648438 18.90625 -9.703125 L 27.640625 -9.703125 C 26.941406 -6.554688 25.457031 -4.085938 23.1875 -2.296875 C 20.914062 -0.503906 18.113281 0.390625 14.78125 0.390625 C 12.15625 0.390625 9.828125 -0.164062 7.796875 -1.28125 C 5.765625 -2.40625 4.179688 -4.007812 3.046875 -6.09375 C 1.910156 -8.175781 1.34375 -10.609375 1.34375 -13.390625 Z M 1.34375 -13.390625 "/></g></g></g><g fill="#000000" fill-opacity="1"><g transform="translate(339.048318, 53.324937)"><g><path d="M 28.21875 -13.828125 C 28.21875 -13.054688 28.171875 -12.253906 28.078125 -11.421875 L 9.5 -11.421875 C 9.632812 -9.753906 10.171875 -8.476562 11.109375 -7.59375 C 12.054688 -6.71875 13.21875 -6.28125 14.59375 -6.28125 C 16.632812 -6.28125 18.054688 -7.144531 18.859375 -8.875 L 27.59375 -8.875 C 27.144531 -7.113281 26.335938 -5.53125 25.171875 -4.125 C 24.003906 -2.71875 22.539062 -1.613281 20.78125 -0.8125 C 19.019531 -0.0078125 17.050781 0.390625 14.875 0.390625 C 12.25 0.390625 9.910156 -0.164062 7.859375 -1.28125 C 5.816406 -2.40625 4.21875 -4.007812 3.0625 -6.09375 C 1.914062 -8.175781 1.34375 -10.609375 1.34375 -13.390625 C 1.34375 -16.171875 1.910156 -18.601562 3.046875 -20.6875 C 4.179688 -22.769531 5.769531 -24.367188 7.8125 -25.484375 C 9.863281 -26.609375 12.21875 -27.171875 14.875 -27.171875 C 17.46875 -27.171875 19.769531 -26.625 21.78125 -25.53125 C 23.800781 -24.445312 25.378906 -22.894531 26.515625 -20.875 C 27.648438 -18.863281 28.21875 -16.515625 28.21875 -13.828125 Z M 19.828125 -15.984375 C 19.828125 -17.390625 19.34375 -18.507812 18.375 -19.34375 C 17.414062 -20.175781 16.21875 -20.59375 14.78125 -20.59375 C 13.40625 -20.59375 12.242188 -20.191406 11.296875 -19.390625 C 10.359375 -18.585938 9.773438 -17.453125 9.546875 -15.984375 Z M 19.828125 -15.984375 "/></g></g></g><g fill="#d5ff3f" fill-opacity="1"><g transform="translate(366.171902, 53.324937)"><g/></g></g><g fill="#000000" fill-opacity="1"><g transform="translate(76.002185, 70.456272)"><g><path d="M 0.890625 0 L 0.890625 -11.484375 L 8.96875 -11.484375 L 8.96875 -9.28125 L 3.546875 -9.28125 L 3.546875 -6.859375 L 8.328125 -6.859375 L 8.328125 -4.90625 L 3.546875 -4.90625 L 3.546875 -2.203125 L 9.125 -2.203125 L 9.125 0 Z M 0.890625 0 "/></g></g></g><g fill="#000000" fill-opacity="1"><g transform="translate(85.852347, 70.456272)"><g><path d="M 0.640625 -3.53125 L 0.640625 -5.203125 L 6.125 -5.203125 L 6.125 -3.53125 Z M 0.640625 -3.53125 "/></g></g></g><g fill="#000000" fill-opacity="1"><g transform="translate(92.994165, 70.456272)"><g><path d="M 6.703125 0.40625 C 5.441406 0.40625 4.34375 0.15625 3.40625 -0.34375 C 2.476562 -0.84375 1.757812 -1.550781 1.25 -2.46875 C 0.738281 -3.394531 0.484375 -4.484375 0.484375 -5.734375 C 0.484375 -6.992188 0.722656 -8.082031 1.203125 -9 C 1.691406 -9.925781 2.378906 -10.640625 3.265625 -11.140625 C 4.148438 -11.640625 5.195312 -11.890625 6.40625 -11.890625 C 7.351562 -11.890625 8.195312 -11.71875 8.9375 -11.375 C 9.6875 -11.03125 10.300781 -10.539062 10.78125 -9.90625 C 11.269531 -9.269531 11.578125 -8.515625 11.703125 -7.640625 L 9.1875 -7.015625 C 9.050781 -7.785156 8.738281 -8.394531 8.25 -8.84375 C 7.769531 -9.300781 7.15625 -9.53125 6.40625 -9.53125 C 5.4375 -9.53125 4.664062 -9.1875 4.09375 -8.5 C 3.519531 -7.820312 3.234375 -6.898438 3.234375 -5.734375 C 3.242188 -4.585938 3.5625 -3.671875 4.1875 -2.984375 C 4.820312 -2.304688 5.671875 -1.96875 6.734375 -1.96875 C 7.617188 -1.96875 8.363281 -2.234375 8.96875 -2.765625 C 9.570312 -3.304688 9.941406 -4.03125 10.078125 -4.9375 L 12.65625 -4.578125 C 12.539062 -3.566406 12.21875 -2.6875 11.6875 -1.9375 C 11.164062 -1.195312 10.476562 -0.617188 9.625 -0.203125 C 8.78125 0.203125 7.804688 0.40625 6.703125 0.40625 Z M 6.703125 0.40625 "/></g></g></g><g fill="#000000" fill-opacity="1"><g transform="translate(106.294229, 70.456272)"><g><path d="M 6.84375 0.40625 C 5.5625 0.40625 4.441406 0.148438 3.484375 -0.359375 C 2.535156 -0.867188 1.796875 -1.582031 1.265625 -2.5 C 0.742188 -3.425781 0.484375 -4.503906 0.484375 -5.734375 C 0.484375 -6.972656 0.742188 -8.050781 1.265625 -8.96875 C 1.796875 -9.894531 2.535156 -10.613281 3.484375 -11.125 C 4.441406 -11.632812 5.5625 -11.890625 6.84375 -11.890625 C 8.125 -11.890625 9.238281 -11.632812 10.1875 -11.125 C 11.144531 -10.613281 11.882812 -9.894531 12.40625 -8.96875 C 12.9375 -8.050781 13.203125 -6.972656 13.203125 -5.734375 C 13.203125 -4.503906 12.9375 -3.425781 12.40625 -2.5 C 11.882812 -1.582031 11.144531 -0.867188 10.1875 -0.359375 C 9.238281 0.148438 8.125 0.40625 6.84375 0.40625 Z M 6.84375 -1.96875 C 7.570312 -1.96875 8.207031 -2.125 8.75 -2.4375 C 9.289062 -2.75 9.707031 -3.1875 10 -3.75 C 10.300781 -4.320312 10.453125 -4.984375 10.453125 -5.734375 C 10.453125 -6.503906 10.300781 -7.171875 10 -7.734375 C 9.707031 -8.304688 9.289062 -8.75 8.75 -9.0625 C 8.207031 -9.375 7.570312 -9.53125 6.84375 -9.53125 C 6.113281 -9.53125 5.476562 -9.375 4.9375 -9.0625 C 4.394531 -8.75 3.972656 -8.304688 3.671875 -7.734375 C 3.378906 -7.171875 3.234375 -6.503906 3.234375 -5.734375 C 3.234375 -4.984375 3.378906 -4.320312 3.671875 -3.75 C 3.972656 -3.1875 4.394531 -2.75 4.9375 -2.4375 C 5.476562 -2.125 6.113281 -1.96875 6.84375 -1.96875 Z M 6.84375 -1.96875 "/></g></g></g><g fill="#000000" fill-opacity="1"><g transform="translate(120.35199, 70.456272)"><g><path d="M 0.890625 0 L 0.890625 -11.484375 L 4.484375 -11.484375 L 7.84375 -3.078125 L 7.875 -3.078125 L 11.234375 -11.484375 L 14.796875 -11.484375 L 14.796875 0 L 12.265625 0 L 12.265625 -8.0625 L 12.234375 -8.0625 L 8.96875 0 L 6.71875 0 L 3.4375 -8.046875 L 3.40625 -8.046875 L 3.40625 0 Z M 0.890625 0 "/></g></g></g><g fill="#000000" fill-opacity="1"><g transform="translate(136.408763, 70.456272)"><g><path d="M 0.890625 0 L 0.890625 -11.484375 L 4.484375 -11.484375 L 7.84375 -3.078125 L 7.875 -3.078125 L 11.234375 -11.484375 L 14.796875 -11.484375 L 14.796875 0 L 12.265625 0 L 12.265625 -8.0625 L 12.234375 -8.0625 L 8.96875 0 L 6.71875 0 L 3.4375 -8.046875 L 3.40625 -8.046875 L 3.40625 0 Z M 0.890625 0 "/></g></g></g><g fill="#000000" fill-opacity="1"><g transform="translate(152.465539, 70.456272)"><g><path d="M 0.890625 0 L 0.890625 -11.484375 L 8.96875 -11.484375 L 8.96875 -9.28125 L 3.546875 -9.28125 L 3.546875 -6.859375 L 8.328125 -6.859375 L 8.328125 -4.90625 L 3.546875 -4.90625 L 3.546875 -2.203125 L 9.125 -2.203125 L 9.125 0 Z M 0.890625 0 "/></g></g></g><g fill="#000000" fill-opacity="1"><g transform="translate(162.315703, 70.456272)"><g><path d="M 9.46875 0.296875 C 8.894531 0.296875 8.414062 0.140625 8.03125 -0.171875 C 7.65625 -0.492188 7.382812 -0.925781 7.21875 -1.46875 L 6.71875 -3.140625 C 6.625 -3.484375 6.460938 -3.769531 6.234375 -4 C 6.015625 -4.226562 5.738281 -4.34375 5.40625 -4.34375 L 3.640625 -4.34375 L 3.640625 0 L 0.890625 0 L 0.890625 -11.484375 L 6.59375 -11.484375 C 7.957031 -11.484375 9.035156 -11.164062 9.828125 -10.53125 C 10.617188 -9.894531 11.015625 -9.03125 11.015625 -7.9375 C 11.015625 -7.1875 10.773438 -6.53125 10.296875 -5.96875 C 9.816406 -5.414062 9.144531 -5.035156 8.28125 -4.828125 L 8.28125 -4.8125 C 8.582031 -4.6875 8.816406 -4.507812 8.984375 -4.28125 C 9.160156 -4.0625 9.300781 -3.785156 9.40625 -3.453125 L 9.765625 -2.09375 C 9.828125 -1.925781 9.90625 -1.78125 10 -1.65625 C 10.101562 -1.539062 10.242188 -1.484375 10.421875 -1.484375 C 10.566406 -1.484375 10.707031 -1.523438 10.84375 -1.609375 C 10.988281 -1.691406 11.113281 -1.804688 11.21875 -1.953125 L 11.796875 -0.640625 C 11.523438 -0.359375 11.179688 -0.132812 10.765625 0.03125 C 10.359375 0.207031 9.925781 0.296875 9.46875 0.296875 Z M 3.640625 -6.21875 L 6.234375 -6.21875 C 6.847656 -6.21875 7.335938 -6.363281 7.703125 -6.65625 C 8.066406 -6.945312 8.25 -7.34375 8.25 -7.84375 C 8.25 -8.320312 8.066406 -8.707031 7.703125 -9 C 7.335938 -9.300781 6.847656 -9.453125 6.234375 -9.453125 L 3.640625 -9.453125 Z M 3.640625 -6.21875 "/></g></g></g><g fill="#000000" fill-opacity="1"><g transform="translate(174.567901, 70.456272)"><g><path d="M 6.703125 0.40625 C 5.441406 0.40625 4.34375 0.15625 3.40625 -0.34375 C 2.476562 -0.84375 1.757812 -1.550781 1.25 -2.46875 C 0.738281 -3.394531 0.484375 -4.484375 0.484375 -5.734375 C 0.484375 -6.992188 0.722656 -8.082031 1.203125 -9 C 1.691406 -9.925781 2.378906 -10.640625 3.265625 -11.140625 C 4.148438 -11.640625 5.195312 -11.890625 6.40625 -11.890625 C 7.351562 -11.890625 8.195312 -11.71875 8.9375 -11.375 C 9.6875 -11.03125 10.300781 -10.539062 10.78125 -9.90625 C 11.269531 -9.269531 11.578125 -8.515625 11.703125 -7.640625 L 9.1875 -7.015625 C 9.050781 -7.785156 8.738281 -8.394531 8.25 -8.84375 C 7.769531 -9.300781 7.15625 -9.53125 6.40625 -9.53125 C 5.4375 -9.53125 4.664062 -9.1875 4.09375 -8.5 C 3.519531 -7.820312 3.234375 -6.898438 3.234375 -5.734375 C 3.242188 -4.585938 3.5625 -3.671875 4.1875 -2.984375 C 4.820312 -2.304688 5.671875 -1.96875 6.734375 -1.96875 C 7.617188 -1.96875 8.363281 -2.234375 8.96875 -2.765625 C 9.570312 -3.304688 9.941406 -4.03125 10.078125 -4.9375 L 12.65625 -4.578125 C 12.539062 -3.566406 12.21875 -2.6875 11.6875 -1.9375 C 11.164062 -1.195312 10.476562 -0.617188 9.625 -0.203125 C 8.78125 0.203125 7.804688 0.40625 6.703125 0.40625 Z M 6.703125 0.40625 "/></g></g></g><g fill="#000000" fill-opacity="1"><g transform="translate(187.867966, 70.456272)"><g><path d="M 0.890625 0 L 0.890625 -11.484375 L 8.96875 -11.484375 L 8.96875 -9.28125 L 3.546875 -9.28125 L 3.546875 -6.859375 L 8.328125 -6.859375 L 8.328125 -4.90625 L 3.546875 -4.90625 L 3.546875 -2.203125 L 9.125 -2.203125 L 9.125 0 Z M 0.890625 0 "/></g></g></g><g fill="#000000" fill-opacity="1"><g transform="translate(197.71813, 70.456272)"><g/></g></g><g fill="#000000" fill-opacity="1"><g transform="translate(201.65185, 70.456272)"><g><path d="M 3.375 0 L 0.078125 -11.484375 L 2.875 -11.484375 L 5.15625 -2.578125 L 5.1875 -2.578125 L 7.40625 -11.484375 L 10.859375 -11.484375 L 13.09375 -2.578125 L 13.125 -2.578125 L 15.359375 -11.484375 L 18.171875 -11.484375 L 14.890625 0 L 11.3125 0 L 9.15625 -8.828125 L 9.125 -8.828125 L 6.9375 0 Z M 3.375 0 "/></g></g></g><g fill="#000000" fill-opacity="1"><g transform="translate(220.27188, 70.456272)"><g><path d="M 0.890625 0 L 0.890625 -11.484375 L 3.640625 -11.484375 L 3.640625 0 Z M 0.890625 0 "/></g></g></g><g fill="#000000" fill-opacity="1"><g transform="translate(225.172864, 70.456272)"><g><path d="M 3.671875 0 L 3.671875 -9.125 L 0.234375 -9.125 L 0.234375 -11.484375 L 9.875 -11.484375 L 9.875 -9.125 L 6.4375 -9.125 L 6.4375 0 Z M 3.671875 0 "/></g></g></g><g fill="#000000" fill-opacity="1"><g transform="translate(235.651744, 70.456272)"><g><path d="M 0.890625 0 L 0.890625 -11.484375 L 3.640625 -11.484375 L 3.640625 -7.046875 L 8.34375 -7.046875 L 8.34375 -11.484375 L 11.09375 -11.484375 L 11.09375 0 L 8.34375 0 L 8.34375 -4.84375 L 3.640625 -4.84375 L 3.640625 0 Z M 0.890625 0 "/></g></g></g><g fill="#ffffff" fill-opacity="1"><g transform="translate(248.010483, 70.456272)"><g/></g></g><g fill="#badf36" fill-opacity="1"><g transform="translate(251.94756, 70.456272)"><g><path d="M 6.703125 0.40625 C 5.441406 0.40625 4.34375 0.15625 3.40625 -0.34375 C 2.476562 -0.84375 1.757812 -1.550781 1.25 -2.46875 C 0.738281 -3.394531 0.484375 -4.484375 0.484375 -5.734375 C 0.484375 -6.992188 0.722656 -8.082031 1.203125 -9 C 1.691406 -9.925781 2.378906 -10.640625 3.265625 -11.140625 C 4.148438 -11.640625 5.195312 -11.890625 6.40625 -11.890625 C 7.351562 -11.890625 8.195312 -11.71875 8.9375 -11.375 C 9.6875 -11.03125 10.300781 -10.539062 10.78125 -9.90625 C 11.269531 -9.269531 11.578125 -8.515625 11.703125 -7.640625 L 9.1875 -7.015625 C 9.050781 -7.785156 8.738281 -8.394531 8.25 -8.84375 C 7.769531 -9.300781 7.15625 -9.53125 6.40625 -9.53125 C 5.4375 -9.53125 4.664062 -9.1875 4.09375 -8.5 C 3.519531 -7.820312 3.234375 -6.898438 3.234375 -5.734375 C 3.242188 -4.585938 3.5625 -3.671875 4.1875 -2.984375 C 4.820312 -2.304688 5.671875 -1.96875 6.734375 -1.96875 C 7.617188 -1.96875 8.363281 -2.234375 8.96875 -2.765625 C 9.570312 -3.304688 9.941406 -4.03125 10.078125 -4.9375 L 12.65625 -4.578125 C 12.539062 -3.566406 12.21875 -2.6875 11.6875 -1.9375 C 11.164062 -1.195312 10.476562 -0.617188 9.625 -0.203125 C 8.78125 0.203125 7.804688 0.40625 6.703125 0.40625 Z M 6.703125 0.40625 "/></g></g></g><g fill="#badf36" fill-opacity="1"><g transform="translate(265.247622, 70.456272)"><g><path d="M 6.84375 0.40625 C 5.5625 0.40625 4.441406 0.148438 3.484375 -0.359375 C 2.535156 -0.867188 1.796875 -1.582031 1.265625 -2.5 C 0.742188 -3.425781 0.484375 -4.503906 0.484375 -5.734375 C 0.484375 -6.972656 0.742188 -8.050781 1.265625 -8.96875 C 1.796875 -9.894531 2.535156 -10.613281 3.484375 -11.125 C 4.441406 -11.632812 5.5625 -11.890625 6.84375 -11.890625 C 8.125 -11.890625 9.238281 -11.632812 10.1875 -11.125 C 11.144531 -10.613281 11.882812 -9.894531 12.40625 -8.96875 C 12.9375 -8.050781 13.203125 -6.972656 13.203125 -5.734375 C 13.203125 -4.503906 12.9375 -3.425781 12.40625 -2.5 C 11.882812 -1.582031 11.144531 -0.867188 10.1875 -0.359375 C 9.238281 0.148438 8.125 0.40625 6.84375 0.40625 Z M 6.84375 -1.96875 C 7.570312 -1.96875 8.207031 -2.125 8.75 -2.4375 C 9.289062 -2.75 9.707031 -3.1875 10 -3.75 C 10.300781 -4.320312 10.453125 -4.984375 10.453125 -5.734375 C 10.453125 -6.503906 10.300781 -7.171875 10 -7.734375 C 9.707031 -8.304688 9.289062 -8.75 8.75 -9.0625 C 8.207031 -9.375 7.570312 -9.53125 6.84375 -9.53125 C 6.113281 -9.53125 5.476562 -9.375 4.9375 -9.0625 C 4.394531 -8.75 3.972656 -8.304688 3.671875 -7.734375 C 3.378906 -7.171875 3.234375 -6.503906 3.234375 -5.734375 C 3.234375 -4.984375 3.378906 -4.320312 3.671875 -3.75 C 3.972656 -3.1875 4.394531 -2.75 4.9375 -2.4375 C 5.476562 -2.125 6.113281 -1.96875 6.84375 -1.96875 Z M 6.84375 -1.96875 "/></g></g></g><g fill="#badf36" fill-opacity="1"><g transform="translate(279.305383, 70.456272)"><g><path d="M 0.890625 0 L 0.890625 -11.484375 L 4.109375 -11.484375 L 8.78125 -3.3125 L 8.828125 -3.3125 L 8.828125 -11.484375 L 11.4375 -11.484375 L 11.4375 0 L 8.1875 0 L 3.515625 -8.15625 L 3.484375 -8.15625 L 3.484375 0 Z M 0.890625 0 "/></g></g></g><g fill="#badf36" fill-opacity="1"><g transform="translate(291.992848, 70.456272)"><g><path d="M 0.890625 0 L 0.890625 -11.484375 L 8.734375 -11.484375 L 8.734375 -9.125 L 3.640625 -9.125 L 3.640625 -6.421875 L 7.78125 -6.421875 L 7.78125 -4.328125 L 3.640625 -4.328125 L 3.640625 0 Z M 0.890625 0 "/></g></g></g><g fill="#badf36" fill-opacity="1"><g transform="translate(301.39162, 70.456272)"><g><path d="M 0.890625 0 L 0.890625 -11.484375 L 3.640625 -11.484375 L 3.640625 0 Z M 0.890625 0 "/></g></g></g><g fill="#badf36" fill-opacity="1"><g transform="translate(306.292604, 70.456272)"><g><path d="M 0.890625 0 L 0.890625 -11.484375 L 5.609375 -11.484375 C 7.597656 -11.484375 9.128906 -10.988281 10.203125 -10 C 11.273438 -9.007812 11.8125 -7.585938 11.8125 -5.734375 C 11.8125 -3.890625 11.273438 -2.472656 10.203125 -1.484375 C 9.128906 -0.492188 7.597656 0 5.609375 0 Z M 3.5625 -2.203125 L 5.609375 -2.203125 C 6.710938 -2.203125 7.5625 -2.503906 8.15625 -3.109375 C 8.757812 -3.722656 9.0625 -4.597656 9.0625 -5.734375 C 9.0625 -6.890625 8.757812 -7.769531 8.15625 -8.375 C 7.5625 -8.976562 6.710938 -9.28125 5.609375 -9.28125 L 3.5625 -9.28125 Z M 3.5625 -2.203125 "/></g></g></g><g fill="#badf36" fill-opacity="1"><g transform="translate(318.963953, 70.456272)"><g><path d="M 0.890625 0 L 0.890625 -11.484375 L 8.96875 -11.484375 L 8.96875 -9.28125 L 3.546875 -9.28125 L 3.546875 -6.859375 L 8.328125 -6.859375 L 8.328125 -4.90625 L 3.546875 -4.90625 L 3.546875 -2.203125 L 9.125 -2.203125 L 9.125 0 Z M 0.890625 0 "/></g></g></g><g fill="#badf36" fill-opacity="1"><g transform="translate(328.814117, 70.456272)"><g><path d="M 0.890625 0 L 0.890625 -11.484375 L 4.109375 -11.484375 L 8.78125 -3.3125 L 8.828125 -3.3125 L 8.828125 -11.484375 L 11.4375 -11.484375 L 11.4375 0 L 8.1875 0 L 3.515625 -8.15625 L 3.484375 -8.15625 L 3.484375 0 Z M 0.890625 0 "/></g></g></g><g fill="#badf36" fill-opacity="1"><g transform="translate(341.501585, 70.456272)"><g><path d="M 6.703125 0.40625 C 5.441406 0.40625 4.34375 0.15625 3.40625 -0.34375 C 2.476562 -0.84375 1.757812 -1.550781 1.25 -2.46875 C 0.738281 -3.394531 0.484375 -4.484375 0.484375 -5.734375 C 0.484375 -6.992188 0.722656 -8.082031 1.203125 -9 C 1.691406 -9.925781 2.378906 -10.640625 3.265625 -11.140625 C 4.148438 -11.640625 5.195312 -11.890625 6.40625 -11.890625 C 7.351562 -11.890625 8.195312 -11.71875 8.9375 -11.375 C 9.6875 -11.03125 10.300781 -10.539062 10.78125 -9.90625 C 11.269531 -9.269531 11.578125 -8.515625 11.703125 -7.640625 L 9.1875 -7.015625 C 9.050781 -7.785156 8.738281 -8.394531 8.25 -8.84375 C 7.769531 -9.300781 7.15625 -9.53125 6.40625 -9.53125 C 5.4375 -9.53125 4.664062 -9.1875 4.09375 -8.5 C 3.519531 -7.820312 3.234375 -6.898438 3.234375 -5.734375 C 3.242188 -4.585938 3.5625 -3.671875 4.1875 -2.984375 C 4.820312 -2.304688 5.671875 -1.96875 6.734375 -1.96875 C 7.617188 -1.96875 8.363281 -2.234375 8.96875 -2.765625 C 9.570312 -3.304688 9.941406 -4.03125 10.078125 -4.9375 L 12.65625 -4.578125 C 12.539062 -3.566406 12.21875 -2.6875 11.6875 -1.9375 C 11.164062 -1.195312 10.476562 -0.617188 9.625 -0.203125 C 8.78125 0.203125 7.804688 0.40625 6.703125 0.40625 Z M 6.703125 0.40625 "/></g></g></g><g fill="#badf36" fill-opacity="1"><g transform="translate(354.80165, 70.456272)"><g><path d="M 0.890625 0 L 0.890625 -11.484375 L 8.96875 -11.484375 L 8.96875 -9.28125 L 3.546875 -9.28125 L 3.546875 -6.859375 L 8.328125 -6.859375 L 8.328125 -4.90625 L 3.546875 -4.90625 L 3.546875 -2.203125 L 9.125 -2.203125 L 9.125 0 Z M 0.890625 0 "/></g></g></g></svg>