<svg xmlns="http://www.w3.org/2000/svg" xmlns:xlink="http://www.w3.org/1999/xlink" width="280" zoomAndPan="magnify" viewBox="0 0 210 60" height="80" preserveAspectRatio="xMidYMid meet" version="1.0"><defs><clipPath id="725063b9bb"><path d="M 15.125 1.238281 L 195.875 1.238281 L 195.875 58.988281 L 15.125 58.988281 Z M 15.125 1.238281 " clip-rule="nonzero"/></clipPath></defs><g clip-path="url(#725063b9bb)"><path fill="#ffffff" d="M 194.421875 40.671875 C 194.152344 40.671875 193.878906 40.851562 193.699219 41.304688 C 191.894531 46.539062 189.363281 49.695312 187.285156 49.695312 C 186.109375 49.695312 185.65625 48.34375 185.65625 46.355469 C 185.65625 41.214844 188.730469 30.296875 190.265625 25.242188 C 190.445312 24.609375 190.539062 24.070312 190.539062 23.617188 C 190.539062 22.175781 189.722656 21.453125 187.734375 21.453125 C 185.65625 21.453125 183.308594 22.265625 181.140625 26.144531 C 180.414062 22.714844 178.066406 21.273438 174.8125 21.273438 C 171.109375 21.273438 167.492188 23.707031 164.511719 27.589844 C 161.527344 31.46875 158.003906 32.730469 155.382812 32.101562 C 157.28125 27.5 158.003906 23.980469 158.003906 21.453125 C 158.003906 17.390625 156.015625 14.957031 152.761719 14.957031 C 147.882812 14.957031 145.082031 19.648438 145.082031 24.519531 C 145.082031 28.308594 146.796875 32.191406 150.59375 34.085938 C 147.429688 41.214844 142.820312 47.710938 141.015625 47.710938 C 138.753906 47.710938 138.03125 36.613281 138.214844 28.671875 C 138.304688 24.160156 138.664062 23.890625 138.664062 22.535156 C 138.664062 21.722656 138.121094 21.183594 136.042969 21.183594 C 131.253906 21.183594 129.71875 25.242188 129.539062 29.933594 C 129.449219 31.738281 129.175781 33.453125 128.726562 35.167969 C 126.738281 42.296875 122.578125 47.800781 119.867188 47.800781 C 118.601562 47.800781 118.242188 46.539062 118.242188 44.914062 C 118.242188 39.769531 121.132812 33.273438 121.132812 27.769531 C 121.132812 23.707031 119.328125 21.183594 115.984375 21.183594 C 112.007812 21.183594 106.855469 25.875 101.886719 34.625 C 103.511719 27.949219 104.144531 21.453125 99.355469 21.453125 C 98.269531 21.453125 97.277344 21.722656 96.371094 22.265625 C 95.738281 22.535156 95.378906 23.167969 95.378906 23.890625 C 95.832031 31.015625 89.59375 49.335938 83.722656 49.335938 C 82.636719 49.335938 82.09375 48.160156 82.09375 46.265625 C 82.09375 41.125 85.167969 30.207031 86.703125 25.152344 C 86.882812 24.519531 86.972656 23.980469 86.972656 23.4375 C 86.972656 22.085938 86.160156 21.363281 84.171875 21.363281 C 82.09375 21.363281 79.746094 22.175781 77.574219 26.054688 C 76.761719 22.625 74.503906 21.183594 71.25 21.183594 C 65.917969 21.183594 60.042969 26.777344 57.421875 34.085938 C 53.898438 43.832031 46.941406 53.304688 37.453125 53.304688 C 28.867188 53.304688 24.347656 46.175781 24.347656 34.898438 C 24.347656 18.566406 36.367188 5.300781 45.222656 5.300781 C 49.472656 5.300781 51.460938 8.007812 51.460938 12.160156 C 51.460938 17.210938 48.65625 19.46875 48.65625 21.453125 C 48.65625 21.992188 49.109375 22.625 50.101562 22.625 C 53.988281 22.625 58.507812 18.113281 58.507812 11.886719 C 58.507812 5.660156 53.628906 1.238281 44.773438 1.238281 C 30.042969 1.238281 15.3125 15.949219 15.3125 34.898438 C 15.3125 49.964844 22.722656 58.988281 35.554688 58.988281 C 44.320312 58.988281 52 52.222656 56.066406 44.28125 C 56.519531 50.867188 59.5 54.296875 64.109375 54.296875 C 68.175781 54.296875 71.429688 51.863281 73.960938 47.621094 C 74.953125 52.042969 77.484375 54.207031 80.828125 54.207031 C 84.625 54.207031 87.878906 51.769531 90.859375 47.351562 C 90.859375 50.867188 91.582031 54.207031 94.65625 54.207031 C 96.101562 54.207031 97.820312 53.847656 98.089844 52.582031 C 101.34375 39.320312 109.296875 28.402344 111.734375 28.402344 C 112.457031 28.402344 112.640625 29.121094 112.640625 29.933594 C 112.640625 33.542969 110.109375 40.941406 110.109375 45.636719 C 110.109375 50.777344 112.277344 54.117188 116.796875 54.117188 C 121.765625 54.117188 126.828125 48.070312 130.171875 39.136719 C 131.253906 47.441406 133.515625 54.117188 137.039062 54.117188 C 141.375 54.117188 149.238281 44.914062 153.9375 35.167969 C 155.746094 35.4375 158.546875 35.347656 161.257812 33.453125 C 160.082031 36.339844 159.449219 39.5 159.449219 42.566406 C 159.449219 51.589844 163.789062 54.117188 167.492188 54.117188 C 171.558594 54.117188 174.8125 51.679688 177.34375 47.441406 C 178.15625 51.230469 180.324219 54.027344 184.210938 54.027344 C 190.265625 54.027344 195.597656 47.800781 195.597656 42.65625 C 195.6875 41.574219 195.054688 40.671875 194.421875 40.671875 Z M 67.90625 49.246094 C 65.464844 49.246094 64.472656 46.808594 64.472656 43.109375 C 64.472656 36.703125 68.898438 25.964844 73.507812 25.964844 C 75.496094 25.964844 76.3125 28.308594 76.3125 31.289062 C 76.3125 37.785156 72.152344 49.246094 67.90625 49.246094 Z M 152.21875 30.113281 C 150.773438 28.402344 150.234375 25.964844 150.234375 23.890625 C 150.234375 21.273438 151.226562 19.105469 152.3125 19.105469 C 153.394531 19.105469 153.847656 20.1875 153.847656 21.8125 C 153.757812 24.339844 152.851562 28.21875 152.21875 30.113281 Z M 171.289062 49.246094 C 168.847656 49.246094 167.855469 46.355469 167.855469 43.109375 C 167.855469 36.882812 172.28125 25.964844 176.890625 25.964844 C 178.878906 25.964844 179.601562 28.308594 179.601562 31.289062 C 179.691406 37.785156 175.625 49.246094 171.289062 49.246094 Z M 171.289062 49.246094 " fill-opacity="1" fill-rule="nonzero"/></g></svg>