<svg xmlns="http://www.w3.org/2000/svg" xmlns:xlink="http://www.w3.org/1999/xlink" width="280" zoomAndPan="magnify" viewBox="0 0 210 60" height="80" preserveAspectRatio="xMidYMid meet" version="1.0"><defs><clipPath id="d51765b3e2"><path d="M 8.484375 1.425781 L 201.234375 1.425781 L 201.234375 58.425781 L 8.484375 58.425781 Z M 8.484375 1.425781 " clip-rule="nonzero"/></clipPath></defs><g clip-path="url(#d51765b3e2)"><path fill="#ffffff" d="M 117.929688 12.828125 C 118.957031 12.828125 119.953125 12.429688 120.683594 11.734375 C 121.410156 11.039062 121.84375 10.042969 121.875 9.050781 C 121.875 8.023438 121.445312 7.027344 120.714844 6.296875 C 119.984375 5.570312 118.992188 5.140625 117.960938 5.140625 C 116.933594 5.171875 115.972656 5.570312 115.242188 6.332031 C 114.511719 7.0625 114.113281 8.054688 114.148438 9.050781 C 114.148438 10.042969 114.546875 11.003906 115.273438 11.734375 C 115.972656 12.394531 116.933594 12.792969 117.929688 12.828125 Z M 144.667969 16.472656 L 154.152344 16.472656 L 154.152344 17.234375 C 153.621094 17.335938 153.125 17.5 152.660156 17.765625 C 151.796875 18.164062 150.074219 20.117188 148.714844 23.398438 C 146.457031 29.066406 144.101562 35.792969 141.613281 43.480469 L 140.683594 46.398438 C 140.289062 47.722656 139.921875 48.585938 139.757812 49.082031 C 139.589844 49.613281 139.359375 50.40625 138.960938 51.367188 C 138.726562 52.097656 138.429688 52.828125 138.066406 53.488281 C 137.601562 54.351562 136.738281 56.105469 136.042969 56.636719 C 134.945312 57.566406 133.320312 58.59375 131.296875 58.425781 C 127.351562 58.425781 124.398438 55.511719 124.363281 52.0625 C 124.363281 49.710938 125.855469 48.152344 128.113281 48.152344 C 129.738281 48.152344 131.164062 49.015625 131.164062 50.839844 C 131.164062 52.164062 129.839844 53.523438 129.839844 54.21875 C 129.839844 56.007812 130.867188 56.835938 132.890625 56.835938 C 134.515625 56.835938 135.84375 55.808594 136.835938 53.753906 C 138.164062 51.402344 138.296875 48.816406 137.167969 45.933594 L 128.84375 24.0625 C 126.917969 19.023438 125.492188 17.367188 123.699219 17.167969 L 123.699219 16.40625 L 136.835938 16.40625 L 136.835938 17.167969 C 135.277344 17.335938 134.480469 18.261719 134.480469 19.917969 C 134.480469 21.113281 134.945312 22.96875 135.808594 25.320312 L 137.367188 29.5625 C 139.160156 34.167969 140.617188 38.179688 141.347656 40.699219 C 143.039062 35.460938 144.601562 30.886719 146.09375 26.878906 C 147.1875 23.894531 147.71875 21.773438 147.71875 20.515625 C 147.71875 18.261719 146.492188 17.234375 144.667969 17.234375 Z M 53.339844 44.410156 C 51.648438 44.109375 50.222656 42.621094 50.222656 39.472656 L 50.222656 1.425781 L 40.667969 3.480469 L 40.667969 4.277344 C 42.292969 4.113281 43.921875 5.535156 43.921875 8.585938 L 43.921875 39.472656 C 43.921875 42.453125 42.292969 44.175781 40.667969 44.410156 C 40.503906 44.441406 40.371094 44.441406 40.203125 44.476562 C 39.375 44.542969 38.546875 44.375 37.78125 44.042969 C 36.488281 43.480469 35.429688 42.488281 34.53125 41.027344 L 30.121094 34.035156 C 29.191406 32.546875 27.796875 31.417969 26.171875 30.789062 C 24.546875 30.160156 22.753906 30.058594 21.0625 30.523438 L 26.039062 25.054688 C 29.789062 20.914062 33.273438 18.296875 36.554688 17.203125 L 36.554688 16.4375 L 25.609375 16.4375 L 25.609375 17.203125 C 28.429688 18.296875 28.261719 20.714844 25.011719 24.492188 L 18.046875 32.578125 L 18.046875 1.425781 L 8.492188 3.480469 L 8.492188 4.277344 C 10.117188 4.277344 11.742188 5.867188 11.742188 8.683594 L 11.742188 39.4375 C 11.742188 42.851562 10.148438 44.175781 8.492188 44.410156 L 8.492188 45.171875 L 21.164062 45.171875 L 21.164062 44.410156 C 19.074219 44.109375 18.046875 42.519531 18.046875 39.472656 L 18.046875 33.804688 L 20.765625 30.820312 L 27.332031 41.558594 C 28.894531 44.144531 30.351562 45.171875 32.640625 45.171875 L 54.667969 45.171875 L 54.667969 44.574219 C 54.703125 44.574219 54.070312 44.542969 53.339844 44.410156 Z M 79.613281 40.796875 L 79.613281 27.9375 C 79.480469 19.554688 75.933594 15.710938 67.804688 15.710938 C 65.21875 15.675781 62.695312 16.539062 60.640625 18.128906 C 58.484375 19.753906 57.453125 21.574219 57.453125 23.695312 C 57.453125 25.75 58.617188 27.308594 60.507812 27.308594 C 62.53125 27.308594 63.988281 26.148438 63.988281 24.558594 C 63.988281 23.367188 63.195312 21.675781 63.195312 20.546875 C 63.195312 18.492188 64.753906 16.703125 67.472656 16.703125 C 70.957031 16.703125 73.445312 19.289062 73.445312 25.023438 L 73.445312 28.46875 L 70.558594 29.164062 C 69.066406 29.464844 67.769531 29.761719 66.808594 30.027344 C 65.8125 30.324219 64.554688 30.722656 63.0625 31.285156 C 60.042969 32.445312 58.449219 33.539062 57.054688 35.59375 C 56.359375 36.589844 56.027344 37.78125 56.027344 38.972656 C 56.027344 43.746094 59.378906 45.933594 64.054688 45.933594 C 67.769531 45.933594 71.6875 43.976562 73.476562 40.300781 C 73.511719 41.460938 73.777344 42.585938 74.304688 43.648438 C 76.261719 47.589844 82.765625 45.269531 82.765625 45.269531 L 82.765625 44.507812 C 79.847656 44.9375 79.613281 41.59375 79.613281 40.796875 Z M 73.445312 36.820312 C 73.445312 38.710938 72.746094 40.265625 71.355469 41.359375 C 70.027344 42.453125 68.632812 43.015625 67.175781 43.015625 C 64.355469 43.015625 62.496094 41.195312 62.496094 37.78125 C 62.496094 36.191406 63.394531 34.699219 64.121094 33.835938 C 64.71875 33.242188 65.382812 32.742188 66.144531 32.414062 C 67.140625 31.882812 67.605469 31.617188 68.300781 31.320312 L 70.957031 30.359375 C 72.28125 29.828125 73.078125 29.5625 73.445312 29.398438 Z M 201.226562 16.472656 L 178.734375 16.472656 L 178.734375 1.425781 L 201.226562 1.425781 L 196.515625 8.949219 Z M 155.480469 41.492188 C 152.695312 38.644531 151.136719 34.796875 151.203125 30.789062 C 151.167969 28.832031 151.53125 26.878906 152.261719 25.054688 C 152.992188 23.234375 154.085938 21.574219 155.480469 20.152344 C 158.332031 17.167969 161.785156 15.675781 165.863281 15.675781 C 169.84375 15.675781 173.328125 17.167969 176.179688 20.152344 C 177.574219 21.542969 178.703125 23.199219 179.429688 25.023438 C 180.195312 26.84375 180.558594 28.800781 180.527344 30.789062 C 180.558594 32.777344 180.195312 34.734375 179.429688 36.554688 C 178.667969 38.378906 177.574219 40.066406 176.179688 41.460938 C 173.328125 44.375 169.878906 45.902344 165.863281 45.902344 C 161.816406 45.933594 158.332031 44.441406 155.480469 41.492188 Z M 171.070312 20.648438 C 169.945312 18.429688 168.417969 17.136719 166.660156 16.769531 C 163.078125 16.042969 159.925781 19.71875 158.730469 25.519531 C 158.234375 28.136719 158.101562 30.789062 158.367188 33.40625 C 158.632812 36.058594 159.363281 38.609375 160.554688 40.996094 C 161.71875 43.214844 163.210938 44.507812 164.96875 44.875 C 168.550781 45.601562 171.800781 41.792969 172.996094 35.925781 C 173.992188 31.019531 173.492188 25.054688 171.070312 20.648438 Z M 171.070312 20.648438 " fill-opacity="1" fill-rule="nonzero"/></g><path fill="#ffffff" d="M 121.277344 39.472656 L 121.277344 16.472656 L 100.910156 16.472656 L 100.910156 17.167969 C 103.632812 17.566406 104.925781 19.621094 103.699219 22.902344 C 97.328125 40.066406 97.726562 39.304688 97.328125 40.664062 C 96.929688 39.339844 96 36.089844 94.507812 32.015625 C 93.015625 27.9375 92.019531 25.253906 91.621094 24.027344 C 90.0625 19.257812 90.59375 17.5 93.117188 17.203125 L 93.117188 16.4375 L 79.914062 16.4375 L 79.914062 17.203125 C 81.871094 17.597656 83.628906 19.851562 85.054688 23.863281 L 87.078125 29.097656 C 89.300781 34.734375 91.921875 42.519531 92.785156 45.171875 L 97.164062 45.171875 C 98.589844 41.09375 104.226562 24.789062 104.992188 23.132812 C 105.820312 21.246094 106.75 19.820312 107.777344 18.824219 C 108.277344 18.296875 108.871094 17.863281 109.570312 17.597656 C 110.234375 17.335938 110.960938 17.167969 111.691406 17.203125 C 111.691406 17.203125 114.875 17.203125 114.875 20.25 L 114.875 39.503906 C 114.875 42.71875 113.316406 44.210938 111.691406 44.441406 L 111.691406 45.203125 L 124.296875 45.203125 L 124.296875 44.441406 C 122.671875 44.175781 121.277344 42.6875 121.277344 39.472656 Z M 121.277344 39.472656 " fill-opacity="1" fill-rule="nonzero"/></svg>