<svg xmlns="http://www.w3.org/2000/svg" xmlns:xlink="http://www.w3.org/1999/xlink" width="280" zoomAndPan="magnify" viewBox="0 0 210 60" height="80" preserveAspectRatio="xMidYMid meet" version="1.0"><defs><clipPath id="162c84b312"><path d="M 1.863281 4.121094 L 96.050781 4.121094 L 96.050781 56 L 1.863281 56 Z M 1.863281 4.121094 " clip-rule="nonzero"/></clipPath><clipPath id="8b3babfe45"><path d="M 17.515625 33.433594 L 43.40625 55.863281 L 53.3125 55.863281 C 47.871094 51.054688 42.347656 46.261719 36.828125 41.476562 C 32.4375 37.664062 28.046875 33.859375 23.710938 30.050781 L 41.1875 12.339844 L 41.1875 33.355469 L 47.980469 39.242188 L 47.980469 10.832031 L 80.511719 10.832031 L 62.570312 29.96875 L 80.511719 49.109375 L 59.367188 49.109375 L 67.164062 55.863281 L 96.050781 55.863281 L 71.8125 30.015625 L 95.996094 4.121094 L 41.1875 4.121094 C 40.324219 4.128906 39.460938 4.476562 38.804688 5.164062 L 17.515625 26.722656 L 8.65625 26.648438 L 8.65625 7.5 C 8.65625 5.628906 7.140625 4.121094 5.257812 4.121094 C 3.375 4.121094 1.863281 5.628906 1.863281 7.5 L 1.863281 52.484375 C 1.863281 54.359375 3.375 55.863281 5.257812 55.863281 C 7.140625 55.863281 8.65625 54.359375 8.65625 52.484375 L 8.65625 33.359375 Z M 17.515625 33.433594 " clip-rule="nonzero"/></clipPath><clipPath id="ee0ff19e63"><path d="M 187 24 L 198 24 L 198 40.269531 L 187 40.269531 Z M 187 24 " clip-rule="nonzero"/></clipPath><clipPath id="0af9c6b995"><path d="M 198 25 L 206.484375 25 L 206.484375 37 L 198 37 Z M 198 25 " clip-rule="nonzero"/></clipPath><clipPath id="910ef34fd9"><path d="M 84.398438 22 L 95 22 L 95 37 L 84.398438 37 Z M 84.398438 22 " clip-rule="nonzero"/></clipPath><clipPath id="e80025ad32"><path d="M 132 20.769531 L 136 20.769531 L 136 37 L 132 37 Z M 132 20.769531 " clip-rule="nonzero"/></clipPath></defs><g clip-path="url(#162c84b312)"><g clip-path="url(#8b3babfe45)"><path fill="#ffffff" d="M 1.863281 4.121094 L 1.863281 55.863281 L 96.050781 55.863281 L 96.050781 4.121094 Z M 1.863281 4.121094 " fill-opacity="1" fill-rule="nonzero"/></g></g><path fill="#ffffff" d="M 171.261719 29.238281 C 172.222656 29.398438 173.003906 29.738281 173.601562 30.25 C 174.199219 30.765625 174.496094 31.5625 174.496094 32.644531 C 174.496094 35.296875 172.644531 36.621094 168.941406 36.621094 L 165.074219 36.621094 L 165.074219 22.644531 L 168.390625 22.644531 C 170.167969 22.644531 171.527344 22.9375 172.460938 23.515625 C 173.410156 24.097656 173.886719 24.984375 173.886719 26.175781 C 173.886719 26.984375 173.628906 27.664062 173.113281 28.203125 C 172.613281 28.742188 171.992188 29.089844 171.261719 29.238281 Z M 167.007812 24.167969 L 167.007812 28.566406 L 169.125 28.566406 C 169.9375 28.566406 170.605469 28.371094 171.117188 27.980469 C 171.648438 27.585938 171.914062 27.03125 171.914062 26.316406 C 171.914062 25.503906 171.632812 24.945312 171.078125 24.632812 C 170.535156 24.320312 169.707031 24.167969 168.597656 24.167969 Z M 168.941406 35.082031 C 170.082031 35.082031 170.949219 34.910156 171.546875 34.574219 C 172.15625 34.234375 172.460938 33.59375 172.460938 32.644531 C 172.460938 31.726562 172.171875 31.0625 171.585938 30.65625 C 171.003906 30.25 170.246094 30.050781 169.308594 30.050781 L 167.007812 30.050781 L 167.007812 35.082031 Z M 168.941406 35.082031 " fill-opacity="1" fill-rule="nonzero"/><path fill="#ffffff" d="M 185.328125 36.621094 L 183.722656 36.621094 L 183.582031 34.957031 C 183.171875 35.621094 182.703125 36.109375 182.175781 36.417969 C 181.648438 36.714844 181.003906 36.863281 180.242188 36.863281 C 179.308594 36.863281 178.574219 36.582031 178.046875 36.011719 C 177.515625 35.445312 177.25 34.640625 177.25 33.597656 L 177.25 25.929688 L 179.125 25.929688 L 179.125 33.394531 C 179.125 34.125 179.253906 34.648438 179.511719 34.957031 C 179.769531 35.257812 180.1875 35.402344 180.773438 35.402344 C 181.816406 35.402344 182.710938 34.789062 183.457031 33.558594 L 183.457031 25.929688 L 185.328125 25.929688 Z M 185.328125 36.621094 " fill-opacity="1" fill-rule="nonzero"/><g clip-path="url(#ee0ff19e63)"><path fill="#ffffff" d="M 197.84375 26.417969 C 197.4375 26.554688 196.988281 26.640625 196.5 26.679688 C 196.011719 26.722656 195.417969 26.742188 194.710938 26.742188 C 195.972656 27.3125 196.601562 28.210938 196.601562 29.441406 C 196.601562 30.507812 196.238281 31.382812 195.503906 32.058594 C 194.773438 32.734375 193.773438 33.070312 192.511719 33.070312 C 192.023438 33.070312 191.570312 33.003906 191.148438 32.867188 C 190.988281 32.976562 190.859375 33.125 190.761719 33.316406 C 190.667969 33.492188 190.621094 33.671875 190.621094 33.863281 C 190.621094 34.445312 191.089844 34.734375 192.023438 34.734375 L 193.734375 34.734375 C 194.453125 34.734375 195.089844 34.863281 195.648438 35.121094 C 196.203125 35.378906 196.628906 35.730469 196.929688 36.175781 C 197.242188 36.621094 197.398438 37.128906 197.398438 37.695312 C 197.398438 38.738281 196.96875 39.535156 196.113281 40.089844 C 195.261719 40.660156 194.011719 40.941406 192.371094 40.941406 C 191.21875 40.941406 190.300781 40.820312 189.625 40.578125 C 188.960938 40.347656 188.484375 39.996094 188.199219 39.523438 C 187.914062 39.050781 187.773438 38.441406 187.773438 37.695312 L 189.460938 37.695312 C 189.460938 38.128906 189.542969 38.46875 189.707031 38.710938 C 189.867188 38.96875 190.160156 39.15625 190.578125 39.277344 C 191 39.414062 191.597656 39.480469 192.371094 39.480469 C 193.496094 39.480469 194.296875 39.339844 194.773438 39.054688 C 195.261719 38.785156 195.503906 38.375 195.503906 37.820312 C 195.503906 37.316406 195.316406 36.941406 194.933594 36.683594 C 194.554688 36.425781 194.027344 36.296875 193.347656 36.296875 L 191.660156 36.296875 C 190.75 36.296875 190.058594 36.109375 189.582031 35.730469 C 189.121094 35.335938 188.890625 34.851562 188.890625 34.269531 C 188.890625 33.917969 188.992188 33.578125 189.195312 33.253906 C 189.398438 32.929688 189.691406 32.640625 190.070312 32.382812 C 189.449219 32.058594 188.984375 31.660156 188.6875 31.183594 C 188.402344 30.699219 188.261719 30.109375 188.261719 29.421875 C 188.261719 28.703125 188.4375 28.0625 188.789062 27.492188 C 189.15625 26.925781 189.652344 26.484375 190.273438 26.175781 C 190.914062 25.851562 191.617188 25.6875 192.390625 25.6875 C 193.230469 25.699219 193.9375 25.675781 194.507812 25.605469 C 195.078125 25.523438 195.546875 25.421875 195.910156 25.300781 C 196.292969 25.167969 196.753906 24.976562 197.292969 24.734375 Z M 192.390625 27.027344 C 191.6875 27.027344 191.136719 27.25 190.742188 27.695312 C 190.363281 28.128906 190.171875 28.703125 190.171875 29.421875 C 190.171875 30.148438 190.371094 30.738281 190.761719 31.183594 C 191.15625 31.617188 191.714844 31.835938 192.433594 31.835938 C 193.164062 31.835938 193.722656 31.625 194.101562 31.207031 C 194.492188 30.773438 194.691406 30.171875 194.691406 29.398438 C 194.691406 27.816406 193.925781 27.027344 192.390625 27.027344 Z M 192.390625 27.027344 " fill-opacity="1" fill-rule="nonzero"/></g><g clip-path="url(#0af9c6b995)"><path fill="#ffffff" d="M 202.539062 25.6875 C 203.269531 25.6875 203.929688 25.789062 204.511719 25.992188 C 205.09375 26.195312 205.652344 26.5 206.179688 26.90625 L 205.386719 28.082031 C 204.898438 27.769531 204.429688 27.539062 203.984375 27.390625 C 203.550781 27.242188 203.085938 27.167969 202.597656 27.167969 C 201.988281 27.167969 201.507812 27.296875 201.15625 27.554688 C 200.800781 27.796875 200.625 28.136719 200.625 28.566406 C 200.625 29 200.789062 29.339844 201.113281 29.582031 C 201.453125 29.824219 202.058594 30.0625 202.925781 30.292969 C 204.117188 30.589844 205.007812 30.996094 205.589844 31.507812 C 206.1875 32.023438 206.484375 32.726562 206.484375 33.621094 C 206.484375 34.675781 206.070312 35.480469 205.246094 36.035156 C 204.429688 36.589844 203.433594 36.863281 202.253906 36.863281 C 200.625 36.863281 199.277344 36.398438 198.203125 35.464844 L 199.203125 34.328125 C 200.109375 35.019531 201.113281 35.363281 202.214844 35.363281 C 202.917969 35.363281 203.476562 35.222656 203.882812 34.9375 C 204.300781 34.640625 204.511719 34.242188 204.511719 33.742188 C 204.511719 33.375 204.4375 33.085938 204.289062 32.867188 C 204.140625 32.640625 203.882812 32.441406 203.515625 32.28125 C 203.148438 32.105469 202.613281 31.921875 201.90625 31.734375 C 200.769531 31.433594 199.941406 31.035156 199.425781 30.535156 C 198.921875 30.035156 198.671875 29.398438 198.671875 28.628906 C 198.671875 28.074219 198.835938 27.574219 199.160156 27.128906 C 199.5 26.667969 199.960938 26.316406 200.542969 26.074219 C 201.140625 25.816406 201.804688 25.6875 202.539062 25.6875 Z M 202.539062 25.6875 " fill-opacity="1" fill-rule="nonzero"/></g><g clip-path="url(#910ef34fd9)"><path fill="#ffffff" d="M 86.332031 22.644531 L 86.332031 36.621094 L 84.398438 36.621094 L 84.398438 22.644531 Z M 93.964844 22.644531 L 88.652344 29.035156 L 94.351562 36.621094 L 91.96875 36.621094 L 86.433594 29.15625 L 91.765625 22.644531 Z M 93.964844 22.644531 " fill-opacity="1" fill-rule="nonzero"/></g><path fill="#ffffff" d="M 100.941406 25.6875 C 101.320312 25.6875 101.671875 25.726562 102 25.808594 L 101.652344 27.632812 C 101.328125 27.554688 101.015625 27.511719 100.714844 27.511719 C 100.050781 27.511719 99.515625 27.757812 99.109375 28.242188 C 98.703125 28.730469 98.382812 29.488281 98.152344 30.515625 L 98.152344 36.621094 L 96.28125 36.621094 L 96.28125 25.929688 L 97.886719 25.929688 L 98.070312 28.101562 C 98.355469 27.304688 98.742188 26.703125 99.230469 26.296875 C 99.71875 25.890625 100.289062 25.6875 100.941406 25.6875 Z M 100.941406 25.6875 " fill-opacity="1" fill-rule="nonzero"/><path fill="#ffffff" d="M 111.613281 30.960938 C 111.613281 31.273438 111.597656 31.589844 111.570312 31.914062 L 104.734375 31.914062 C 104.816406 33.09375 105.113281 33.957031 105.628906 34.511719 C 106.144531 35.066406 106.808594 35.34375 107.625 35.34375 C 108.140625 35.34375 108.613281 35.269531 109.046875 35.121094 C 109.480469 34.972656 109.9375 34.734375 110.410156 34.410156 L 111.226562 35.527344 C 110.085938 36.417969 108.835938 36.863281 107.480469 36.863281 C 105.988281 36.863281 104.824219 36.378906 103.980469 35.402344 C 103.152344 34.429688 102.742188 33.09375 102.742188 31.386719 C 102.742188 30.277344 102.917969 29.296875 103.269531 28.445312 C 103.636719 27.582031 104.152344 26.90625 104.816406 26.417969 C 105.492188 25.929688 106.289062 25.6875 107.195312 25.6875 C 108.621094 25.6875 109.710938 26.152344 110.472656 27.085938 C 111.230469 28.019531 111.613281 29.3125 111.613281 30.960938 Z M 109.761719 30.414062 C 109.761719 29.359375 109.550781 28.554688 109.128906 28 C 108.707031 27.445312 108.078125 27.167969 107.238281 27.167969 C 105.703125 27.167969 104.871094 28.289062 104.734375 30.535156 L 109.761719 30.535156 Z M 109.761719 30.414062 " fill-opacity="1" fill-rule="nonzero"/><path fill="#ffffff" d="M 121.625 34.125 C 121.625 34.558594 121.699219 34.882812 121.851562 35.101562 C 122 35.304688 122.222656 35.457031 122.523438 35.566406 L 122.09375 36.863281 C 121.539062 36.796875 121.089844 36.640625 120.75 36.398438 C 120.410156 36.15625 120.160156 35.777344 120 35.261719 C 119.28125 36.332031 118.214844 36.863281 116.804688 36.863281 C 115.746094 36.863281 114.910156 36.566406 114.300781 35.972656 C 113.691406 35.378906 113.386719 34.601562 113.386719 33.640625 C 113.386719 32.503906 113.792969 31.632812 114.605469 31.023438 C 115.433594 30.414062 116.601562 30.109375 118.105469 30.109375 L 119.753906 30.109375 L 119.753906 29.320312 C 119.753906 28.5625 119.570312 28.019531 119.203125 27.695312 C 118.839844 27.371094 118.277344 27.210938 117.515625 27.210938 C 116.730469 27.210938 115.765625 27.398438 114.625 27.777344 L 114.160156 26.417969 C 115.488281 25.929688 116.722656 25.6875 117.863281 25.6875 C 119.125 25.6875 120.066406 26 120.691406 26.621094 C 121.3125 27.230469 121.625 28.101562 121.625 29.238281 Z M 117.230469 35.464844 C 118.300781 35.464844 119.144531 34.910156 119.753906 33.800781 L 119.753906 31.347656 L 118.351562 31.347656 C 116.371094 31.347656 115.378906 32.078125 115.378906 33.539062 C 115.378906 34.171875 115.535156 34.652344 115.847656 34.980469 C 116.160156 35.304688 116.621094 35.464844 117.230469 35.464844 Z M 117.230469 35.464844 " fill-opacity="1" fill-rule="nonzero"/><path fill="#ffffff" d="M 130.882812 36.136719 C 130.179688 36.621094 129.378906 36.863281 128.480469 36.863281 C 127.574219 36.863281 126.859375 36.609375 126.347656 36.09375 C 125.84375 35.566406 125.59375 34.808594 125.59375 33.820312 L 125.59375 27.371094 L 123.722656 27.371094 L 123.722656 25.929688 L 125.59375 25.929688 L 125.59375 23.515625 L 127.464844 23.292969 L 127.464844 25.929688 L 130.007812 25.929688 L 129.804688 27.371094 L 127.464844 27.371094 L 127.464844 33.742188 C 127.464844 34.296875 127.558594 34.699219 127.75 34.957031 C 127.953125 35.203125 128.285156 35.324219 128.746094 35.324219 C 129.167969 35.324219 129.640625 35.179688 130.171875 34.898438 Z M 130.882812 36.136719 " fill-opacity="1" fill-rule="nonzero"/><g clip-path="url(#e80025ad32)"><path fill="#ffffff" d="M 134.695312 25.929688 L 134.695312 36.621094 L 132.824219 36.621094 L 132.824219 25.929688 Z M 133.738281 20.796875 C 134.132812 20.796875 134.449219 20.921875 134.695312 21.164062 C 134.9375 21.40625 135.0625 21.710938 135.0625 22.078125 C 135.0625 22.441406 134.9375 22.746094 134.695312 22.988281 C 134.449219 23.21875 134.132812 23.335938 133.738281 23.335938 C 133.359375 23.335938 133.046875 23.21875 132.800781 22.988281 C 132.558594 22.746094 132.4375 22.441406 132.4375 22.078125 C 132.4375 21.710938 132.558594 21.40625 132.800781 21.164062 C 133.046875 20.921875 133.359375 20.796875 133.738281 20.796875 Z M 133.738281 20.796875 " fill-opacity="1" fill-rule="nonzero"/></g><path fill="#ffffff" d="M 146.441406 25.929688 L 142.796875 36.621094 L 140.539062 36.621094 L 136.835938 25.929688 L 138.871094 25.929688 L 141.679688 34.957031 L 144.464844 25.929688 Z M 146.441406 25.929688 " fill-opacity="1" fill-rule="nonzero"/><path fill="#ffffff" d="M 156.597656 30.960938 C 156.597656 31.273438 156.585938 31.589844 156.558594 31.914062 L 149.722656 31.914062 C 149.804688 33.09375 150.101562 33.957031 150.617188 34.511719 C 151.132812 35.066406 151.796875 35.34375 152.613281 35.34375 C 153.125 35.34375 153.601562 35.269531 154.035156 35.121094 C 154.46875 34.972656 154.925781 34.734375 155.398438 34.410156 L 156.210938 35.527344 C 155.074219 36.417969 153.824219 36.863281 152.46875 36.863281 C 150.976562 36.863281 149.808594 36.378906 148.96875 35.402344 C 148.140625 34.429688 147.726562 33.09375 147.726562 31.386719 C 147.726562 30.277344 147.90625 29.296875 148.257812 28.445312 C 148.625 27.582031 149.136719 26.90625 149.804688 26.417969 C 150.480469 25.929688 151.273438 25.6875 152.183594 25.6875 C 153.609375 25.6875 154.699219 26.152344 155.460938 27.085938 C 156.21875 28.019531 156.597656 29.3125 156.597656 30.960938 Z M 154.746094 30.414062 C 154.746094 29.359375 154.539062 28.554688 154.117188 28 C 153.695312 27.445312 153.066406 27.167969 152.226562 27.167969 C 150.691406 27.167969 149.859375 28.289062 149.722656 30.535156 L 154.746094 30.535156 Z M 154.746094 30.414062 " fill-opacity="1" fill-rule="nonzero"/></svg>