<svg xmlns="http://www.w3.org/2000/svg" xmlns:xlink="http://www.w3.org/1999/xlink" width="280" zoomAndPan="magnify" viewBox="0 0 210 60" height="80" preserveAspectRatio="xMidYMid meet" version="1.0"><defs><clipPath id="6cdf9f7bda"><path d="M 2.113281 0.628906 L 207.613281 0.628906 L 207.613281 59.128906 L 2.113281 59.128906 Z M 2.113281 0.628906 " clip-rule="nonzero"/></clipPath></defs><g clip-path="url(#6cdf9f7bda)"><path fill="#ffffff" d="M 130.183594 59.363281 C 138.425781 59.363281 145.378906 56.601562 151.03125 51.070312 C 156.6875 45.542969 159.511719 38.527344 159.511719 30.027344 C 159.511719 21.527344 156.6875 14.515625 151.03125 8.984375 C 145.378906 3.453125 138.429688 0.6875 130.183594 0.6875 C 121.9375 0.6875 114.972656 3.453125 109.289062 8.980469 C 107.855469 10.375 101.992188 18.40625 101.992188 18.40625 L 107.445312 25.324219 L 115.804688 15.070312 L 115.804688 15.125 C 115.855469 15.070312 115.902344 15.015625 115.953125 14.964844 C 119.621094 11.167969 124.351562 9.273438 130.140625 9.273438 C 135.933594 9.273438 140.660156 11.167969 144.332031 14.964844 C 147.996094 18.761719 149.832031 23.785156 149.832031 30.027344 C 149.832031 36.273438 147.996094 41.308594 144.332031 45.128906 C 140.660156 48.953125 135.933594 50.835938 130.140625 50.863281 C 121.195312 50.910156 115.929688 45.3125 115.929688 45.3125 L 89.738281 13.210938 C 88.707031 11.71875 87.519531 10.304688 86.167969 8.984375 C 80.511719 3.453125 73.5625 0.6875 65.316406 0.6875 C 57.070312 0.6875 50.105469 3.453125 44.425781 8.984375 C 38.746094 14.511719 35.902344 21.527344 35.902344 30.027344 C 35.902344 38.527344 38.746094 45.542969 44.425781 51.070312 C 50.105469 56.601562 57.070312 59.363281 65.316406 59.363281 C 73.519531 59.363281 80.433594 56.628906 86.074219 51.160156 C 86.082031 51.152344 86.09375 51.140625 86.109375 51.125 C 86.125 51.109375 86.144531 51.089844 86.167969 51.070312 C 86.148438 51.089844 86.125 51.109375 86.105469 51.128906 C 86.09375 51.136719 86.085938 51.148438 86.074219 51.160156 C 85.425781 51.75 94.402344 42.257812 94.402344 42.257812 L 88.148438 34.820312 C 88.148438 34.820312 80.449219 50.863281 65.273438 50.863281 C 59.484375 50.863281 54.753906 48.953125 51.085938 45.128906 C 47.414062 41.308594 45.582031 36.273438 45.582031 30.027344 C 45.582031 23.78125 47.414062 18.761719 51.085938 14.964844 C 54.753906 11.167969 59.484375 9.273438 65.273438 9.273438 C 71.066406 9.273438 75.796875 11.167969 79.464844 14.964844 C 79.542969 15.042969 79.617188 15.125 79.6875 15.207031 C 79.722656 15.246094 79.761719 15.285156 79.796875 15.324219 L 79.796875 15.144531 L 87.0625 23.542969 L 106.042969 47.3125 C 107.441406 49.246094 108.707031 50.496094 109.292969 51.070312 C 114.972656 56.601562 121.9375 59.363281 130.183594 59.363281 Z M 2.316406 1.433594 L 2.316406 58.789062 L 39.027344 58.789062 L 34.675781 50.304688 L 11.746094 50.304688 L 11.746094 1.433594 Z M 207.597656 58.785156 L 189.722656 30.148438 L 207.679688 1.433594 L 197.089844 1.433594 L 184.84375 22.3125 L 171.855469 1.433594 L 161.265625 1.433594 L 179.136719 30.148438 L 161.265625 58.785156 L 171.855469 58.785156 L 184.015625 37.992188 L 197.007812 58.785156 Z M 207.597656 58.785156 " fill-opacity="1" fill-rule="evenodd"/></g></svg>