<svg xmlns="http://www.w3.org/2000/svg" xmlns:xlink="http://www.w3.org/1999/xlink" width="280" zoomAndPan="magnify" viewBox="0 0 210 60" height="80" preserveAspectRatio="xMidYMid meet" version="1.0"><defs><clipPath id="a38c2f9e46"><path d="M 1.703125 3.359375 L 52 3.359375 L 52 56.324219 L 1.703125 56.324219 Z M 1.703125 3.359375 " clip-rule="nonzero"/></clipPath><clipPath id="8ee6808045"><path d="M 40 3.359375 L 82 3.359375 L 82 45 L 40 45 Z M 40 3.359375 " clip-rule="nonzero"/></clipPath><clipPath id="b2371a4628"><path d="M 203 12 L 207.921875 12 L 207.921875 33 L 203 33 Z M 203 12 " clip-rule="nonzero"/></clipPath></defs><g clip-path="url(#a38c2f9e46)"><path fill="#ffffff" d="M 23.101562 3.359375 C 28.289062 3.359375 32.15625 5.566406 35.449219 8.164062 C 36.980469 9.375 38.238281 10.828125 39.355469 12.425781 C 39.507812 12.644531 39.546875 12.828125 39.40625 13.046875 C 38.289062 14.933594 37.695312 16.996094 37.226562 19.113281 C 37.214844 19.191406 37.175781 19.269531 37.148438 19.335938 C 37.148438 19.347656 37.109375 19.359375 37.085938 19.359375 C 34.375 10.75 25.695312 7.164062 18.613281 8.984375 C 11.222656 10.878906 6.695312 17.101562 6.878906 24.335938 C 7.070312 32.207031 12.636719 38.128906 19.886719 39.230469 C 27.707031 40.414062 34.621094 35.972656 37.058594 28.671875 C 37.226562 28.828125 37.238281 29.035156 37.277344 29.230469 C 38.082031 33.089844 39.832031 36.464844 42.351562 39.480469 C 44.59375 42.167969 47.316406 44.21875 50.46875 45.726562 C 50.742188 45.855469 51.15625 45.960938 51.246094 46.179688 C 51.351562 46.441406 50.960938 46.675781 50.792969 46.921875 C 48.511719 50.140625 45.773438 52.921875 42.714844 55.402344 C 42.414062 55.648438 42.105469 55.882812 41.804688 56.15625 C 41.597656 56.351562 41.429688 56.363281 41.183594 56.179688 C 38.574219 54.179688 36.214844 51.933594 34.101562 49.414062 C 32.542969 47.558594 31.132812 45.597656 29.949219 43.480469 C 29.820312 43.246094 29.691406 43.179688 29.433594 43.285156 C 26.550781 44.480469 23.519531 44.738281 20.457031 44.558594 C 17.941406 44.402344 15.554688 43.660156 13.296875 42.558594 C 9.03125 40.464844 5.828125 37.269531 3.738281 32.996094 C 2.324219 30.101562 1.625 27.035156 1.703125 23.789062 C 1.753906 21.777344 1.9375 19.800781 2.585938 17.878906 C 2.988281 16.671875 3.464844 15.503906 3.765625 14.269531 C 4.699219 10.554688 4.089844 7.101562 2.027344 3.878906 C 1.921875 3.710938 1.820312 3.527344 1.726562 3.359375 C 9.535156 3.359375 15.320312 3.359375 23.101562 3.359375 Z M 23.101562 3.359375 " fill-opacity="1" fill-rule="nonzero"/></g><g clip-path="url(#8ee6808045)"><path fill="#ffffff" d="M 81.324219 3.359375 C 80.742188 4.398438 80.078125 5.371094 79.664062 6.503906 C 78.613281 9.464844 78.5625 12.414062 79.5625 15.398438 C 80.054688 16.867188 80.664062 18.296875 80.933594 19.839844 C 81.375 22.347656 81.546875 24.855469 81.089844 27.375 C 80.300781 31.777344 78.355469 35.582031 75.152344 38.699219 C 71.832031 41.933594 67.847656 43.90625 63.230469 44.480469 C 58.808594 45.023438 54.59375 44.246094 50.703125 42.011719 C 45.269531 38.894531 41.84375 34.296875 40.546875 28.140625 C 40.132812 26.167969 39.949219 24.152344 40.144531 22.140625 C 40.367188 19.894531 40.898438 17.722656 41.832031 15.671875 C 43.777344 11.414062 46.835938 8.179688 50.898438 5.878906 C 53.402344 4.460938 56.972656 3.359375 60.277344 3.359375 C 68.496094 3.359375 81.324219 3.359375 81.324219 3.359375 Z M 45.347656 24.023438 C 45.347656 32.75 52.375 39.789062 61.492188 39.414062 C 69.507812 39.078125 76.449219 32.59375 76.203125 23.425781 C 75.992188 15.566406 69.613281 8.425781 60.46875 8.554688 C 52.441406 8.671875 45.347656 15.011719 45.347656 24.023438 Z M 45.347656 24.023438 " fill-opacity="1" fill-rule="nonzero"/></g><path fill="#ffffff" d="M 26.214844 26.089844 C 25.75 26.152344 25.332031 26.113281 24.90625 26.113281 C 24.660156 26.113281 24.53125 26.0625 24.492188 25.765625 C 24.359375 24.75 23.285156 23.894531 22.246094 23.90625 C 21.195312 23.917969 20.238281 24.765625 20.105469 25.816406 C 20.082031 26.023438 20.015625 26.101562 19.808594 26.101562 C 18.902344 26.101562 17.992188 26.101562 17.097656 26.101562 C 16.890625 26.101562 16.8125 26.011719 16.839844 25.800781 C 17.03125 23.375 18.785156 21.359375 21.195312 20.816406 C 23.90625 20.191406 27.265625 22.128906 27.65625 25.335938 C 27.746094 26.101562 27.757812 26.101562 26.96875 26.101562 C 26.695312 26.101562 26.421875 26.101562 26.203125 26.101562 Z M 26.214844 26.089844 " fill-opacity="1" fill-rule="nonzero"/><path fill="#ffffff" d="M 64.582031 26.089844 C 64.140625 26.089844 63.683594 26.089844 63.246094 26.089844 C 63.050781 26.089844 62.972656 26.035156 62.945312 25.816406 C 62.84375 24.800781 61.882812 23.945312 60.820312 23.90625 C 59.714844 23.867188 58.730469 24.632812 58.574219 25.726562 C 58.523438 26.050781 58.417969 26.113281 58.121094 26.113281 C 57.316406 26.101562 56.5 26.101562 55.695312 26.113281 C 55.398438 26.113281 55.308594 26.011719 55.332031 25.710938 C 55.527344 23.554688 56.683594 22.035156 58.601562 21.179688 C 60.535156 20.308594 62.414062 20.59375 64.113281 21.90625 C 65.398438 22.894531 66.019531 24.246094 66.226562 25.816406 C 66.253906 26.035156 66.1875 26.101562 65.980469 26.101562 C 65.527344 26.101562 65.058594 26.101562 64.605469 26.101562 Z M 64.582031 26.089844 " fill-opacity="1" fill-rule="nonzero"/><path fill="#ffffff" d="M 101.164062 19.511719 C 101.660156 18.8125 102.339844 18.230469 103.203125 17.773438 C 104.085938 17.292969 105.085938 17.054688 106.207031 17.054688 C 107.507812 17.054688 108.683594 17.378906 109.730469 18.019531 C 110.796875 18.664062 111.632812 19.582031 112.238281 20.777344 C 112.863281 21.957031 113.171875 23.324219 113.171875 24.886719 C 113.171875 26.449219 112.863281 27.839844 112.238281 29.050781 C 111.632812 30.246094 110.796875 31.175781 109.730469 31.835938 C 108.683594 32.5 107.507812 32.832031 106.207031 32.832031 C 105.085938 32.832031 104.09375 32.601562 103.230469 32.140625 C 102.386719 31.679688 101.699219 31.101562 101.164062 30.402344 L 101.164062 39.863281 L 97.308594 39.863281 L 97.308594 17.304688 L 101.164062 17.304688 Z M 109.234375 24.886719 C 109.234375 23.96875 109.042969 23.179688 108.65625 22.515625 C 108.289062 21.835938 107.792969 21.320312 107.167969 20.972656 C 106.5625 20.621094 105.902344 20.449219 105.1875 20.449219 C 104.488281 20.449219 103.828125 20.632812 103.203125 21 C 102.597656 21.347656 102.101562 21.863281 101.714844 22.542969 C 101.347656 23.222656 101.164062 24.023438 101.164062 24.941406 C 101.164062 25.863281 101.347656 26.664062 101.714844 27.34375 C 102.101562 28.023438 102.597656 28.546875 103.203125 28.914062 C 103.828125 29.265625 104.488281 29.4375 105.1875 29.4375 C 105.902344 29.4375 106.5625 29.253906 107.167969 28.886719 C 107.792969 28.519531 108.289062 27.996094 108.65625 27.316406 C 109.042969 26.632812 109.234375 25.824219 109.234375 24.886719 Z M 109.234375 24.886719 " fill-opacity="1" fill-rule="nonzero"/><path fill="#ffffff" d="M 129.636719 17.304688 L 129.636719 32.582031 L 125.753906 32.582031 L 125.753906 30.652344 C 125.257812 31.3125 124.605469 31.835938 123.796875 32.222656 C 123.007812 32.589844 122.144531 32.773438 121.207031 32.773438 C 120.015625 32.773438 118.960938 32.527344 118.042969 32.03125 C 117.121094 31.515625 116.398438 30.769531 115.863281 29.796875 C 115.351562 28.804688 115.09375 27.628906 115.09375 26.265625 L 115.09375 17.304688 L 118.949219 17.304688 L 118.949219 25.714844 C 118.949219 26.929688 119.253906 27.867188 119.859375 28.527344 C 120.464844 29.171875 121.289062 29.492188 122.335938 29.492188 C 123.402344 29.492188 124.238281 29.171875 124.84375 28.527344 C 125.449219 27.867188 125.753906 26.929688 125.753906 25.714844 L 125.753906 17.304688 Z M 129.636719 17.304688 " fill-opacity="1" fill-rule="nonzero"/><path fill="#ffffff" d="M 138.535156 32.832031 C 137.285156 32.832031 136.167969 32.609375 135.175781 32.167969 C 134.183594 31.710938 133.394531 31.09375 132.804688 30.320312 C 132.238281 29.546875 131.925781 28.695312 131.871094 27.757812 L 135.753906 27.757812 C 135.828125 28.34375 136.109375 28.832031 136.609375 29.21875 C 137.121094 29.605469 137.753906 29.796875 138.507812 29.796875 C 139.242188 29.796875 139.8125 29.648438 140.214844 29.355469 C 140.636719 29.0625 140.847656 28.683594 140.847656 28.226562 C 140.847656 27.730469 140.589844 27.359375 140.078125 27.121094 C 139.582031 26.863281 138.78125 26.589844 137.679688 26.292969 C 136.542969 26.019531 135.605469 25.734375 134.871094 25.4375 C 134.15625 25.144531 133.53125 24.695312 133 24.089844 C 132.484375 23.480469 132.226562 22.664062 132.226562 21.632812 C 132.226562 20.789062 132.464844 20.015625 132.945312 19.316406 C 133.441406 18.617188 134.136719 18.066406 135.035156 17.664062 C 135.953125 17.257812 137.027344 17.054688 138.261719 17.054688 C 140.078125 17.054688 141.527344 17.515625 142.609375 18.433594 C 143.695312 19.335938 144.289062 20.558594 144.402344 22.101562 L 140.710938 22.101562 C 140.65625 21.496094 140.398438 21.019531 139.9375 20.667969 C 139.5 20.300781 138.902344 20.117188 138.148438 20.117188 C 137.453125 20.117188 136.910156 20.246094 136.523438 20.503906 C 136.15625 20.761719 135.972656 21.117188 135.972656 21.578125 C 135.972656 22.09375 136.230469 22.488281 136.746094 22.765625 C 137.257812 23.023438 138.058594 23.289062 139.140625 23.5625 C 140.242188 23.839844 141.152344 24.125 141.867188 24.417969 C 142.582031 24.714844 143.199219 25.171875 143.710938 25.796875 C 144.246094 26.40625 144.519531 27.214844 144.539062 28.226562 C 144.539062 29.109375 144.289062 29.898438 143.796875 30.597656 C 143.316406 31.296875 142.621094 31.847656 141.703125 32.25 C 140.800781 32.636719 139.746094 32.832031 138.535156 32.832031 Z M 138.535156 32.832031 " fill-opacity="1" fill-rule="nonzero"/><path fill="#ffffff" d="M 155.550781 17.082031 C 156.710938 17.082031 157.738281 17.339844 158.636719 17.855469 C 159.535156 18.351562 160.234375 19.097656 160.730469 20.089844 C 161.246094 21.0625 161.5 22.242188 161.5 23.621094 L 161.5 32.582031 L 157.644531 32.582031 L 157.644531 24.144531 C 157.644531 22.929688 157.34375 22 156.738281 21.359375 C 156.132812 20.695312 155.304688 20.363281 154.257812 20.363281 C 153.191406 20.363281 152.347656 20.695312 151.726562 21.359375 C 151.121094 22 150.816406 22.929688 150.816406 24.144531 L 150.816406 32.582031 L 146.960938 32.582031 L 146.960938 12.175781 L 150.816406 12.175781 L 150.816406 19.207031 C 151.3125 18.542969 151.972656 18.03125 152.800781 17.664062 C 153.625 17.277344 154.542969 17.082031 155.550781 17.082031 Z M 155.550781 17.082031 " fill-opacity="1" fill-rule="nonzero"/><path fill="#ffffff" d="M 171.199219 32.832031 C 169.730469 32.832031 168.410156 32.507812 167.234375 31.867188 C 166.058594 31.203125 165.132812 30.273438 164.453125 29.078125 C 163.792969 27.886719 163.460938 26.507812 163.460938 24.941406 C 163.460938 23.378906 163.800781 22 164.480469 20.804688 C 165.175781 19.609375 166.121094 18.691406 167.316406 18.046875 C 168.507812 17.386719 169.839844 17.054688 171.308594 17.054688 C 172.777344 17.054688 174.109375 17.386719 175.304688 18.046875 C 176.496094 18.691406 177.433594 19.609375 178.113281 20.804688 C 178.808594 22 179.160156 23.378906 179.160156 24.941406 C 179.160156 26.507812 178.800781 27.886719 178.085938 29.078125 C 177.386719 30.273438 176.433594 31.203125 175.21875 31.867188 C 174.027344 32.507812 172.6875 32.832031 171.199219 32.832031 Z M 171.199219 29.464844 C 171.898438 29.464844 172.550781 29.300781 173.15625 28.96875 C 173.777344 28.621094 174.273438 28.105469 174.640625 27.425781 C 175.011719 26.746094 175.191406 25.917969 175.191406 24.941406 C 175.191406 23.492188 174.808594 22.378906 174.035156 21.605469 C 173.285156 20.816406 172.355469 20.421875 171.253906 20.421875 C 170.152344 20.421875 169.226562 20.816406 168.472656 21.605469 C 167.738281 22.378906 167.371094 23.492188 167.371094 24.941406 C 167.371094 26.394531 167.730469 27.515625 168.445312 28.308594 C 169.179688 29.078125 170.097656 29.464844 171.199219 29.464844 Z M 171.199219 29.464844 " fill-opacity="1" fill-rule="nonzero"/><path fill="#ffffff" d="M 202.394531 17.304688 L 197.933594 32.582031 L 193.773438 32.582031 L 190.992188 21.910156 L 188.210938 32.582031 L 184.023438 32.582031 L 179.535156 17.304688 L 183.445312 17.304688 L 186.144531 28.941406 L 189.066406 17.304688 L 193.140625 17.304688 L 196.003906 28.914062 L 198.703125 17.304688 Z M 202.394531 17.304688 " fill-opacity="1" fill-rule="nonzero"/><g clip-path="url(#b2371a4628)"><path fill="#ffffff" d="M 203.738281 12.175781 L 207.59375 12.175781 L 207.59375 32.582031 L 203.738281 32.582031 Z M 203.738281 12.175781 " fill-opacity="1" fill-rule="nonzero"/></g></svg>