<svg xmlns="http://www.w3.org/2000/svg" xmlns:xlink="http://www.w3.org/1999/xlink" width="280" zoomAndPan="magnify" viewBox="0 0 210 60" height="80" preserveAspectRatio="xMidYMid meet" version="1.0"><defs><clipPath id="d27064230c"><path d="M 1.851562 9.367188 L 43 9.367188 L 43 50.140625 L 1.851562 50.140625 Z M 1.851562 9.367188 " clip-rule="nonzero"/></clipPath><clipPath id="98d746533a"><path d="M 189 20 L 208.066406 20 L 208.066406 41 L 189 41 Z M 189 20 " clip-rule="nonzero"/></clipPath></defs><g clip-path="url(#d27064230c)"><path fill="#ffffff" d="M 22.234375 50.136719 C 33.492188 50.136719 42.617188 41.011719 42.617188 29.753906 C 42.617188 18.492188 33.492188 9.367188 22.234375 9.367188 C 10.976562 9.367188 1.851562 18.492188 1.851562 29.753906 C 1.851562 41.011719 10.976562 50.136719 22.234375 50.136719 Z M 22.234375 50.136719 " fill-opacity="1" fill-rule="nonzero"/></g><path fill="#010203" d="M 24.179688 37.828125 L 14.078125 37.828125 C 14.046875 37.828125 14.015625 37.820312 13.984375 37.808594 C 13.957031 37.792969 13.929688 37.777344 13.910156 37.75 C 13.890625 37.726562 13.875 37.699219 13.867188 37.667969 C 13.859375 37.636719 13.859375 37.605469 13.867188 37.574219 L 15.835938 27.457031 C 15.84375 27.421875 15.859375 27.386719 15.886719 27.363281 C 15.914062 27.335938 15.949219 27.316406 15.984375 27.308594 C 16.019531 27.300781 16.058594 27.304688 16.09375 27.316406 C 16.128906 27.328125 16.160156 27.351562 16.183594 27.382812 L 24.335938 37.5 C 24.355469 37.53125 24.367188 37.566406 24.367188 37.601562 C 24.371094 37.636719 24.363281 37.671875 24.347656 37.707031 C 24.332031 37.738281 24.308594 37.765625 24.277344 37.789062 C 24.25 37.808594 24.214844 37.820312 24.179688 37.828125 Z M 24.179688 37.828125 " fill-opacity="1" fill-rule="nonzero"/><path fill="#010203" d="M 13.890625 22.550781 L 23.992188 22.550781 C 24.023438 22.550781 24.054688 22.558594 24.082031 22.570312 C 24.113281 22.585938 24.136719 22.601562 24.15625 22.628906 C 24.179688 22.652344 24.191406 22.679688 24.199219 22.710938 C 24.207031 22.742188 24.210938 22.773438 24.203125 22.804688 L 22.246094 32.941406 C 22.238281 32.976562 22.21875 33.007812 22.191406 33.035156 C 22.167969 33.0625 22.132812 33.078125 22.097656 33.085938 C 22.0625 33.09375 22.023438 33.09375 21.988281 33.082031 C 21.953125 33.070312 21.921875 33.046875 21.898438 33.019531 L 13.734375 22.867188 C 13.707031 22.839844 13.691406 22.804688 13.683594 22.765625 C 13.679688 22.730469 13.683594 22.691406 13.703125 22.65625 C 13.71875 22.621094 13.746094 22.59375 13.78125 22.574219 C 13.8125 22.554688 13.851562 22.546875 13.890625 22.550781 Z M 13.890625 22.550781 " fill-opacity="1" fill-rule="nonzero"/><path fill="#010203" d="M 25.214844 22.550781 C 25.171875 22.554688 25.125 22.566406 25.089844 22.59375 C 25.054688 22.621094 25.03125 22.660156 25.019531 22.703125 C 24.914062 23.546875 24.984375 24.40625 25.234375 25.21875 C 25.480469 26.03125 25.898438 26.785156 26.457031 27.425781 C 27.015625 28.066406 27.703125 28.582031 28.472656 28.9375 C 29.246094 29.296875 30.085938 29.484375 30.933594 29.496094 L 31.148438 29.496094 C 31.191406 29.5 31.238281 29.484375 31.273438 29.457031 C 31.308594 29.425781 31.332031 29.386719 31.339844 29.339844 L 32.695312 22.769531 C 32.699219 22.738281 32.695312 22.710938 32.6875 22.679688 C 32.675781 22.652344 32.660156 22.628906 32.640625 22.605469 C 32.621094 22.585938 32.597656 22.566406 32.570312 22.554688 C 32.542969 22.542969 32.515625 22.535156 32.484375 22.535156 Z M 25.214844 22.550781 " fill-opacity="1" fill-rule="nonzero"/><path fill="#ffffff" d="M 59.679688 21.152344 L 66.945312 21.152344 C 67.285156 21.152344 67.511719 21.339844 67.4375 21.722656 L 67.035156 24.066406 C 68.46875 21.984375 70.550781 20.738281 72.667969 20.738281 C 73.6875 20.730469 74.675781 21.078125 75.464844 21.722656 C 75.804688 22.0625 75.804688 22.25 75.578125 22.59375 L 73.460938 25.578125 C 73.195312 25.976562 73.003906 25.921875 72.589844 25.726562 C 72.113281 25.511719 71.601562 25.394531 71.078125 25.390625 C 68.542969 25.390625 66.425781 27.054688 65.441406 32.085938 L 63.96875 39.675781 C 63.941406 39.839844 63.859375 39.992188 63.738281 40.101562 C 63.613281 40.210938 63.453125 40.277344 63.289062 40.285156 L 59.417969 40.285156 C 59.34375 40.285156 59.269531 40.269531 59.199219 40.238281 C 59.132812 40.207031 59.070312 40.160156 59.023438 40.101562 C 58.976562 40.042969 58.941406 39.972656 58.925781 39.898438 C 58.910156 39.828125 58.910156 39.75 58.925781 39.675781 L 61.796875 25.078125 L 59.378906 21.679688 C 59.191406 21.417969 59.34375 21.152344 59.679688 21.152344 Z M 59.679688 21.152344 " fill-opacity="1" fill-rule="nonzero"/><path fill="#ffffff" d="M 73.597656 30.570312 C 74.582031 24.632812 78.933594 20.738281 84.601562 20.738281 C 90.351562 20.738281 93.074219 25.3125 92.242188 30.308594 C 92.050781 31.59375 91.601562 32.613281 90.542969 32.613281 L 78.289062 32.613281 C 78.402344 35.410156 80.332031 36.734375 82.902344 36.734375 C 84.507812 36.699219 86.070312 36.199219 87.402344 35.296875 C 87.703125 35.070312 88.042969 34.957031 88.273438 35.296875 L 89.671875 37.492188 C 89.898438 37.832031 89.78125 38.058594 89.441406 38.363281 C 87.628906 40.023438 84.675781 40.785156 81.992188 40.785156 C 75.945312 40.785156 72.652344 36.320312 73.597656 30.570312 Z M 87.855469 29.285156 C 88.042969 26.296875 86.003906 25.050781 84.035156 25.050781 C 81.464844 25.050781 79.460938 26.789062 78.703125 29.285156 Z M 87.855469 29.285156 " fill-opacity="1" fill-rule="nonzero"/><path fill="#ffffff" d="M 110.542969 39.835938 L 114.9375 17.460938 L 112.777344 14.5625 C 112.75 14.511719 112.742188 14.457031 112.742188 14.402344 C 112.746094 14.34375 112.765625 14.292969 112.796875 14.246094 C 112.828125 14.199219 112.871094 14.164062 112.917969 14.136719 C 112.96875 14.113281 113.023438 14.101562 113.078125 14.105469 L 119.8125 14.105469 C 120.1875 14.105469 120.378906 14.332031 120.300781 14.671875 L 118.332031 24.550781 C 119.847656 22.28125 122.117188 20.730469 124.765625 20.730469 C 129 20.730469 131.421875 24.359375 130.511719 28.820312 L 128.320312 39.675781 C 128.292969 39.839844 128.210938 39.992188 128.089844 40.105469 C 127.964844 40.214844 127.804688 40.277344 127.636719 40.285156 L 123.667969 40.285156 C 123.589844 40.296875 123.507812 40.285156 123.4375 40.257812 C 123.363281 40.226562 123.296875 40.179688 123.25 40.121094 C 123.199219 40.058594 123.167969 39.984375 123.152344 39.90625 C 123.140625 39.832031 123.148438 39.75 123.175781 39.675781 L 125.140625 29.878906 C 125.671875 27.234375 124.953125 25.609375 123.328125 25.609375 C 120.300781 25.609375 117.917969 29.011719 116.898438 33.816406 L 115.613281 39.828125 C 115.597656 39.949219 115.539062 40.0625 115.449219 40.144531 C 115.359375 40.226562 115.242188 40.277344 115.121094 40.285156 L 110.910156 40.285156 C 110.855469 40.28125 110.804688 40.265625 110.757812 40.242188 C 110.707031 40.214844 110.664062 40.179688 110.632812 40.140625 C 110.597656 40.097656 110.570312 40.050781 110.554688 39.996094 C 110.539062 39.945312 110.535156 39.890625 110.542969 39.835938 Z M 110.542969 39.835938 " fill-opacity="1" fill-rule="nonzero"/><path fill="#ffffff" d="M 131.871094 30.796875 C 132.855469 24.480469 137.320312 20.738281 142.539062 20.738281 C 145.296875 20.738281 147.449219 21.984375 148.285156 24.066406 L 148.738281 21.753906 C 148.757812 21.582031 148.84375 21.421875 148.980469 21.3125 C 149.113281 21.199219 149.28125 21.140625 149.457031 21.148438 L 153.125 21.148438 C 153.203125 21.136719 153.28125 21.144531 153.355469 21.171875 C 153.429688 21.199219 153.496094 21.246094 153.542969 21.308594 C 153.59375 21.371094 153.628906 21.441406 153.640625 21.519531 C 153.652344 21.597656 153.648438 21.679688 153.617188 21.753906 L 150.097656 39.734375 C 150.074219 39.898438 149.984375 40.050781 149.851562 40.15625 C 149.71875 40.261719 149.550781 40.3125 149.378906 40.300781 L 145.664062 40.300781 C 145.320312 40.300781 145.132812 40.109375 145.210938 39.734375 L 145.550781 37.878906 C 144.789062 38.796875 143.835938 39.535156 142.757812 40.042969 C 141.679688 40.554688 140.5 40.820312 139.308594 40.828125 C 133.992188 40.820312 131.003906 36.394531 131.871094 30.796875 Z M 140.835938 36.246094 C 143.898438 36.246094 146.167969 33.671875 146.621094 30.652344 C 147.070312 27.628906 145.449219 25.347656 142.613281 25.347656 C 139.585938 25.347656 137.390625 27.804688 136.902344 30.679688 C 136.410156 33.550781 137.886719 36.246094 140.835938 36.246094 Z M 140.835938 36.246094 " fill-opacity="1" fill-rule="nonzero"/><path fill="#ffffff" d="M 152.484375 39.683594 L 156.050781 21.644531 C 156.128906 21.339844 156.28125 21.152344 156.507812 21.152344 L 160.5 21.152344 C 160.847656 21.152344 161.070312 21.339844 160.992188 21.722656 L 160.59375 24.066406 C 162.03125 21.984375 164.113281 20.738281 166.230469 20.738281 C 167.25 20.730469 168.238281 21.078125 169.027344 21.722656 C 169.371094 22.0625 169.371094 22.25 169.144531 22.589844 L 167.027344 25.578125 C 166.757812 25.976562 166.570312 25.921875 166.15625 25.726562 C 165.679688 25.511719 165.164062 25.394531 164.640625 25.390625 C 162.109375 25.390625 159.992188 27.054688 159.007812 32.085938 L 157.535156 39.675781 C 157.507812 39.84375 157.425781 39.996094 157.300781 40.105469 C 157.179688 40.21875 157.019531 40.285156 156.851562 40.292969 L 152.976562 40.292969 C 152.898438 40.292969 152.824219 40.277344 152.757812 40.246094 C 152.691406 40.214844 152.628906 40.167969 152.582031 40.109375 C 152.535156 40.050781 152.5 39.980469 152.484375 39.90625 C 152.46875 39.835938 152.46875 39.757812 152.484375 39.683594 Z M 152.484375 39.683594 " fill-opacity="1" fill-rule="nonzero"/><path fill="#ffffff" d="M 165.679688 45.773438 C 165.578125 45.679688 165.511719 45.550781 165.496094 45.410156 C 165.484375 45.269531 165.519531 45.132812 165.601562 45.019531 L 167.382812 42.222656 C 167.574219 41.917969 167.871094 41.824219 168.101562 42.03125 C 169.84375 43.128906 171.539062 43.808594 173.621094 43.808594 C 177.253906 43.808594 180.277344 42.332031 181.335938 37.457031 C 179.335938 39.34375 177.480469 40.253906 174.679688 40.253906 C 169.199219 40.253906 166.324219 35.636719 167.230469 30.496094 C 168.253906 24.667969 172.601562 20.738281 178.082031 20.738281 C 181.105469 20.738281 183.1875 22.441406 183.832031 23.839844 L 184.285156 21.753906 C 184.296875 21.589844 184.371094 21.4375 184.488281 21.324219 C 184.609375 21.214844 184.765625 21.148438 184.929688 21.148438 L 188.632812 21.148438 C 188.710938 21.136719 188.789062 21.148438 188.863281 21.175781 C 188.9375 21.203125 189 21.25 189.050781 21.3125 C 189.101562 21.371094 189.132812 21.445312 189.148438 21.523438 C 189.160156 21.601562 189.152344 21.679688 189.125 21.753906 L 186.011719 37.566406 C 184.664062 44.453125 179.902344 48.042969 173.433594 48.042969 C 170.707031 48.042969 167.636719 47.363281 165.679688 45.773438 Z M 176.117188 35.828125 C 179.183594 35.828125 181.449219 33.367188 181.902344 30.460938 C 182.351562 27.550781 180.730469 25.347656 177.894531 25.347656 C 174.871094 25.347656 172.679688 27.746094 172.183594 30.492188 C 171.6875 33.234375 173.167969 35.828125 176.117188 35.828125 Z M 176.117188 35.828125 " fill-opacity="1" fill-rule="nonzero"/><g clip-path="url(#98d746533a)"><path fill="#ffffff" d="M 189.277344 30.570312 C 190.257812 24.632812 194.609375 20.738281 200.28125 20.738281 C 206.03125 20.738281 208.75 25.3125 207.921875 30.308594 C 207.730469 31.59375 207.277344 32.613281 206.21875 32.613281 L 193.964844 32.613281 C 194.078125 35.410156 196.007812 36.734375 198.582031 36.734375 C 200.1875 36.699219 201.75 36.199219 203.078125 35.296875 C 203.382812 35.070312 203.722656 34.957031 203.949219 35.296875 L 205.347656 37.492188 C 205.574219 37.832031 205.464844 38.058594 205.125 38.363281 C 203.304688 40.023438 200.359375 40.785156 197.671875 40.785156 C 191.605469 40.785156 188.332031 36.320312 189.277344 30.570312 Z M 203.535156 29.285156 C 203.722656 26.296875 201.679688 25.050781 199.714844 25.050781 C 197.140625 25.050781 195.140625 26.789062 194.382812 29.285156 Z M 203.535156 29.285156 " fill-opacity="1" fill-rule="nonzero"/></g><path fill="#ffffff" d="M 102.085938 40.820312 C 103.433594 40.847656 104.769531 40.609375 106.023438 40.117188 C 107.277344 39.625 108.421875 38.886719 109.386719 37.945312 C 109.460938 37.898438 109.523438 37.832031 109.570312 37.753906 C 109.621094 37.679688 109.652344 37.59375 109.667969 37.507812 C 109.679688 37.417969 109.675781 37.328125 109.65625 37.238281 C 109.632812 37.152344 109.589844 37.070312 109.535156 37 L 107.457031 34.695312 C 107.410156 34.640625 107.351562 34.597656 107.289062 34.570312 C 107.226562 34.539062 107.15625 34.519531 107.085938 34.515625 C 107.015625 34.511719 106.945312 34.523438 106.878906 34.546875 C 106.8125 34.570312 106.753906 34.605469 106.699219 34.65625 C 105.566406 35.523438 104.191406 36.011719 102.765625 36.054688 C 99.78125 36.054688 98.113281 33.710938 98.496094 30.757812 C 98.875 27.804688 101.179688 25.5 104.085938 25.5 C 105.683594 25.5 106.695312 26.066406 107.832031 27.203125 C 108.132812 27.507812 108.324219 27.507812 108.660156 27.242188 L 111.351562 24.949219 C 111.414062 24.910156 111.472656 24.855469 111.515625 24.792969 C 111.558594 24.730469 111.585938 24.660156 111.601562 24.582031 C 111.617188 24.507812 111.613281 24.429688 111.597656 24.355469 C 111.582031 24.28125 111.546875 24.210938 111.503906 24.148438 C 109.875 21.839844 107.34375 20.746094 104.542969 20.746094 C 98.910156 20.746094 94.332031 24.941406 93.578125 30.503906 C 92.746094 36.535156 96.753906 40.820312 102.085938 40.820312 Z M 102.085938 40.820312 " fill-opacity="1" fill-rule="nonzero"/></svg>