<svg xmlns="http://www.w3.org/2000/svg" xmlns:xlink="http://www.w3.org/1999/xlink" width="280" zoomAndPan="magnify" viewBox="0 0 210 60" height="80" preserveAspectRatio="xMidYMid meet" version="1.0"><defs><clipPath id="b49657e2b6"><path d="M 180 23 L 206.648438 23 L 206.648438 59.398438 L 180 59.398438 Z M 180 23 " clip-rule="nonzero"/></clipPath><clipPath id="ee3410a110"><path d="M 3.398438 1 L 38 1 L 38 58 L 3.398438 58 Z M 3.398438 1 " clip-rule="nonzero"/></clipPath></defs><path fill="#ffffff" d="M 73.714844 33.417969 C 71.984375 32.457031 71.070312 31.679688 71.070312 30.582031 C 71.070312 29.164062 72.300781 28.296875 74.257812 28.296875 C 76.535156 28.296875 78.539062 29.257812 78.539062 29.257812 L 80.132812 24.363281 C 80.132812 24.363281 78.675781 23.21875 74.351562 23.21875 C 68.339844 23.21875 64.148438 26.695312 64.148438 31.542969 C 64.148438 34.285156 66.109375 36.390625 68.703125 37.898438 C 70.796875 39.089844 71.527344 39.957031 71.527344 41.191406 C 71.527344 42.519531 70.480469 43.570312 68.519531 43.570312 C 65.605469 43.570312 62.875 42.0625 62.875 42.0625 L 61.1875 46.953125 C 61.1875 46.953125 63.738281 48.648438 67.976562 48.648438 C 74.167969 48.648438 78.585938 45.582031 78.585938 40.09375 C 78.675781 37.078125 76.398438 34.972656 73.714844 33.417969 Z M 73.714844 33.417969 " fill-opacity="1" fill-rule="nonzero"/><path fill="#ffffff" d="M 98.394531 23.128906 C 95.34375 23.128906 92.976562 24.59375 91.109375 26.785156 L 91.019531 26.742188 L 93.660156 12.839844 L 86.738281 12.839844 L 80.042969 48.191406 L 86.921875 48.191406 L 89.195312 36.117188 C 90.109375 31.542969 92.429688 28.753906 94.617188 28.753906 C 96.164062 28.753906 96.757812 29.804688 96.757812 31.316406 C 96.757812 32.273438 96.664062 33.417969 96.4375 34.378906 L 93.84375 48.234375 L 100.71875 48.234375 L 103.40625 33.96875 C 103.726562 32.457031 103.90625 30.675781 103.90625 29.441406 C 103.996094 25.460938 101.992188 23.128906 98.394531 23.128906 Z M 98.394531 23.128906 " fill-opacity="1" fill-rule="nonzero"/><path fill="#ffffff" d="M 119.574219 23.128906 C 111.285156 23.128906 105.773438 30.628906 105.773438 38.996094 C 105.773438 44.347656 109.054688 48.691406 115.246094 48.691406 C 123.398438 48.691406 128.863281 41.375 128.863281 32.824219 C 128.910156 27.839844 126.039062 23.128906 119.574219 23.128906 Z M 116.203125 43.34375 C 113.835938 43.34375 112.878906 41.328125 112.878906 38.816406 C 112.878906 34.835938 114.925781 28.386719 118.660156 28.386719 C 121.121094 28.386719 121.894531 30.492188 121.894531 32.550781 C 121.894531 36.847656 119.847656 43.34375 116.203125 43.34375 Z M 116.203125 43.34375 " fill-opacity="1" fill-rule="nonzero"/><path fill="#ffffff" d="M 146.535156 23.128906 C 141.886719 23.128906 139.246094 27.246094 139.246094 27.246094 L 139.15625 27.246094 L 139.566406 23.539062 L 133.464844 23.539062 C 133.144531 26.054688 132.597656 29.851562 132.050781 32.730469 L 127.269531 57.976562 L 134.144531 57.976562 L 136.058594 47.730469 L 136.195312 47.730469 C 136.195312 47.730469 137.605469 48.648438 140.25 48.648438 C 148.355469 48.648438 153.636719 40.324219 153.636719 31.910156 C 153.636719 27.289062 151.589844 23.128906 146.535156 23.128906 Z M 139.976562 43.480469 C 138.199219 43.480469 137.152344 42.472656 137.152344 42.472656 L 138.289062 36.023438 C 139.109375 31.726562 141.339844 28.84375 143.710938 28.84375 C 145.804688 28.84375 146.441406 30.8125 146.441406 32.640625 C 146.441406 37.078125 143.800781 43.480469 139.976562 43.480469 Z M 139.976562 43.480469 " fill-opacity="1" fill-rule="nonzero"/><path fill="#ffffff" d="M 163.472656 13.203125 C 161.289062 13.203125 159.511719 14.941406 159.511719 17.230469 C 159.511719 19.285156 160.789062 20.703125 162.746094 20.703125 L 162.835938 20.703125 C 164.976562 20.703125 166.84375 19.242188 166.890625 16.679688 C 166.9375 14.621094 165.570312 13.203125 163.472656 13.203125 Z M 163.472656 13.203125 " fill-opacity="1" fill-rule="nonzero"/><path fill="#ffffff" d="M 153.820312 48.191406 L 160.742188 48.191406 L 165.433594 23.675781 L 158.464844 23.675781 Z M 153.820312 48.191406 " fill-opacity="1" fill-rule="nonzero"/><path fill="#ffffff" d="M 182.921875 23.632812 L 178.140625 23.632812 L 178.367188 22.488281 C 178.777344 20.109375 180.144531 18.007812 182.464844 18.007812 C 183.695312 18.007812 184.652344 18.371094 184.652344 18.371094 L 186.015625 12.976562 C 186.015625 12.976562 184.832031 12.382812 182.28125 12.382812 C 179.824219 12.382812 177.410156 13.066406 175.542969 14.667969 C 173.175781 16.679688 172.082031 19.5625 171.535156 22.488281 L 171.351562 23.632812 L 168.164062 23.632812 L 167.164062 28.84375 L 170.351562 28.84375 L 166.707031 48.191406 L 173.585938 48.191406 L 177.226562 28.84375 L 181.964844 28.84375 Z M 182.921875 23.632812 " fill-opacity="1" fill-rule="nonzero"/><g clip-path="url(#b49657e2b6)"><path fill="#ffffff" d="M 199.496094 23.675781 C 199.496094 23.675781 195.171875 34.5625 193.257812 40.507812 L 193.167969 40.507812 C 193.03125 38.585938 191.480469 23.675781 191.480469 23.675781 L 184.242188 23.675781 L 188.386719 46.175781 C 188.476562 46.679688 188.429688 47 188.25 47.320312 C 187.429688 48.875 186.109375 50.386719 184.515625 51.480469 C 183.238281 52.441406 181.78125 53.039062 180.644531 53.449219 L 182.554688 59.300781 C 183.96875 58.984375 186.835938 57.839844 189.296875 55.550781 C 192.4375 52.578125 195.351562 48.050781 198.3125 41.832031 L 206.738281 23.675781 Z M 199.496094 23.675781 " fill-opacity="1" fill-rule="nonzero"/></g><g clip-path="url(#ee3410a110)"><path fill="#ffffff" d="M 37.460938 7.761719 C 37.460938 7.761719 36.824219 7.945312 35.777344 8.265625 C 35.59375 7.671875 35.320312 6.984375 34.957031 6.253906 C 33.773438 3.964844 31.996094 2.730469 29.902344 2.730469 C 29.765625 2.730469 29.628906 2.730469 29.445312 2.777344 C 29.402344 2.6875 29.308594 2.640625 29.265625 2.550781 C 28.355469 1.542969 27.171875 1.085938 25.757812 1.132812 C 23.027344 1.222656 20.292969 3.1875 18.105469 6.710938 C 16.558594 9.179688 15.375 12.289062 15.054688 14.714844 C 11.914062 15.675781 9.726562 16.359375 9.683594 16.40625 C 8.089844 16.910156 8.042969 16.953125 7.859375 18.464844 C 7.722656 19.605469 3.535156 51.800781 3.535156 51.800781 L 37.964844 57.792969 L 37.964844 7.714844 C 37.691406 7.714844 37.554688 7.761719 37.460938 7.761719 Z M 29.492188 10.230469 C 27.671875 10.78125 25.667969 11.421875 23.707031 12.015625 C 24.253906 9.867188 25.347656 7.714844 26.625 6.300781 C 27.125 5.796875 27.808594 5.203125 28.582031 4.835938 C 29.355469 6.480469 29.539062 8.722656 29.492188 10.230469 Z M 25.757812 3.007812 C 26.394531 3.007812 26.941406 3.144531 27.398438 3.417969 C 26.667969 3.785156 25.941406 4.378906 25.257812 5.0625 C 23.527344 6.9375 22.207031 9.867188 21.660156 12.65625 C 20.019531 13.160156 18.378906 13.660156 16.878906 14.121094 C 17.878906 9.730469 21.570312 3.097656 25.757812 3.007812 Z M 20.476562 28.160156 C 20.65625 31.085938 28.355469 31.726562 28.808594 38.632812 C 29.128906 44.074219 25.941406 47.777344 21.339844 48.050781 C 15.785156 48.417969 12.734375 45.125 12.734375 45.125 L 13.917969 40.09375 C 13.917969 40.09375 16.96875 42.425781 19.429688 42.246094 C 21.023438 42.152344 21.613281 40.828125 21.570312 39.914062 C 21.339844 36.070312 15.054688 36.300781 14.644531 29.988281 C 14.28125 24.683594 17.742188 19.332031 25.394531 18.828125 C 28.355469 18.648438 29.855469 19.378906 29.855469 19.378906 L 28.125 25.964844 C 28.125 25.964844 26.167969 25.050781 23.84375 25.230469 C 20.476562 25.460938 20.429688 27.609375 20.476562 28.160156 Z M 31.3125 9.683594 C 31.3125 8.3125 31.132812 6.34375 30.496094 4.699219 C 32.589844 5.109375 33.589844 7.441406 34.046875 8.859375 C 33.226562 9.089844 32.316406 9.363281 31.3125 9.683594 Z M 31.3125 9.683594 " fill-opacity="1" fill-rule="nonzero"/></g><path fill="#ffffff" d="M 39.011719 57.703125 L 53.3125 54.136719 C 53.3125 54.136719 47.164062 12.382812 47.117188 12.105469 C 47.070312 11.832031 46.84375 11.648438 46.617188 11.648438 C 46.386719 11.648438 42.378906 11.558594 42.378906 11.558594 C 42.378906 11.558594 39.921875 9.179688 39.011719 8.265625 Z M 39.011719 57.703125 " fill-opacity="1" fill-rule="nonzero"/></svg>