<svg xmlns="http://www.w3.org/2000/svg" xmlns:xlink="http://www.w3.org/1999/xlink" width="280" zoomAndPan="magnify" viewBox="0 0 210 60" height="80" preserveAspectRatio="xMidYMid meet" version="1.0"><defs><clipPath id="bf2421fe52"><path d="M 0.515625 8 L 209.765625 8 L 209.765625 52 L 0.515625 52 Z M 0.515625 8 " clip-rule="nonzero"/></clipPath></defs><g clip-path="url(#bf2421fe52)"><path fill="#ffffff" d="M 163.105469 24.855469 C 160.46875 24.855469 158.28125 25.792969 156.71875 27.527344 L 157.03125 25.964844 C 157.136719 25.480469 156.789062 25.0625 156.304688 25.0625 C 155.816406 25.0625 155.296875 25.480469 155.226562 25.964844 L 150.644531 49.742188 C 150.542969 50.226562 150.886719 50.644531 151.375 50.644531 C 151.859375 50.644531 152.382812 50.226562 152.449219 49.742188 L 154.152344 40.890625 C 154.777344 42.035156 156.234375 43.5625 159.496094 43.5625 C 162.066406 43.5625 164.183594 42.765625 165.847656 41.238281 C 167.585938 39.640625 168.765625 37.246094 169.355469 34.15625 C 169.945312 31.066406 169.703125 28.707031 168.589844 27.109375 C 167.515625 25.617188 165.675781 24.855469 163.105469 24.855469 Z M 159.808594 41.929688 C 155.921875 41.929688 154.394531 39.257812 155.367188 34.191406 C 156.339844 29.089844 158.800781 26.484375 162.65625 26.484375 C 166.890625 26.484375 168.453125 29.019531 167.445312 34.191406 C 166.4375 39.5 164.007812 41.929688 159.808594 41.929688 Z M 202.640625 33.21875 C 200.351562 32.351562 198.164062 31.554688 198.582031 29.402344 C 198.789062 28.324219 199.65625 26.519531 203.195312 26.519531 C 205.175781 26.519531 206.425781 27.074219 207.5 28.429688 C 207.710938 28.671875 207.953125 28.671875 208.023438 28.671875 C 208.507812 28.636719 208.925781 28.289062 209.027344 27.839844 C 209.0625 27.628906 209.027344 27.421875 208.925781 27.25 L 208.925781 27.214844 C 207.8125 25.652344 206.007812 24.855469 203.507812 24.855469 C 199.898438 24.855469 197.296875 26.589844 196.777344 29.402344 C 196.117188 32.769531 199.101562 33.878906 201.738281 34.886719 C 203.996094 35.753906 206.148438 36.550781 205.765625 38.597656 C 205.210938 41.515625 202.15625 41.929688 200.386719 41.929688 C 197.957031 41.929688 196.464844 41.273438 195.351562 39.710938 C 195.214844 39.535156 195.039062 39.46875 194.832031 39.46875 C 194.347656 39.5 193.929688 39.847656 193.824219 40.300781 C 193.789062 40.507812 193.824219 40.714844 193.929688 40.890625 C 194.660156 42.242188 196.84375 43.632812 200.074219 43.632812 C 204.167969 43.632812 206.980469 41.757812 207.570312 38.632812 C 208.195312 35.265625 205.246094 34.15625 202.640625 33.21875 Z M 197.15625 20.132812 L 195.25 20.132812 L 195.628906 18.222656 C 195.734375 17.738281 195.386719 17.320312 194.902344 17.320312 C 194.414062 17.320312 193.929688 17.738281 193.824219 18.222656 L 193.445312 20.132812 L 191.535156 20.132812 C 191.046875 20.132812 190.5625 20.550781 190.457031 21.035156 C 190.355469 21.523438 190.703125 21.9375 191.1875 21.9375 L 193.097656 21.9375 L 192.714844 23.847656 C 192.609375 24.332031 192.957031 24.75 193.445312 24.75 C 193.929688 24.75 194.414062 24.332031 194.519531 23.847656 L 194.902344 21.9375 L 196.808594 21.9375 C 197.296875 21.9375 197.78125 21.523438 197.886719 21.035156 C 197.992188 20.652344 197.746094 20.238281 197.332031 20.132812 C 197.296875 20.167969 197.226562 20.132812 197.15625 20.132812 Z M 44.917969 38.597656 C 45.855469 39.085938 47.519531 39.746094 49.117188 39.710938 C 50.574219 39.710938 51.339844 38.910156 51.339844 37.972656 C 51.339844 37.039062 50.785156 36.414062 49.222656 35.511719 C 47.277344 34.398438 45.820312 32.835938 45.820312 30.789062 C 45.820312 27.179688 48.910156 24.609375 53.421875 24.609375 C 55.398438 24.609375 56.925781 24.992188 57.761719 25.480469 L 56.582031 29.125 C 55.574219 28.671875 54.496094 28.429688 53.386719 28.429688 C 51.929688 28.429688 50.992188 29.089844 50.992188 30.128906 C 50.992188 30.964844 51.652344 31.554688 52.96875 32.246094 C 54.984375 33.394531 56.648438 34.953125 56.648438 37.175781 C 56.648438 41.273438 53.316406 43.597656 48.699219 43.5625 C 46.582031 43.527344 44.605469 42.972656 43.632812 42.277344 C 43.667969 42.277344 44.917969 38.597656 44.917969 38.597656 Z M 57.691406 43.425781 L 62.6875 17.320312 L 67.828125 17.320312 L 65.847656 27.421875 L 65.917969 27.351562 C 67.304688 25.722656 69.074219 24.574219 71.367188 24.574219 C 74.039062 24.574219 75.566406 26.3125 75.566406 29.191406 C 75.566406 30.09375 75.429688 31.519531 75.183594 32.664062 L 73.171875 43.390625 L 68.035156 43.390625 L 69.976562 32.976562 C 70.117188 32.28125 70.1875 31.34375 70.1875 30.652344 C 70.1875 29.539062 69.734375 28.707031 68.589844 28.707031 C 66.957031 28.707031 65.1875 30.894531 64.527344 34.296875 L 62.828125 43.390625 Z M 94.171875 31.761719 C 94.171875 38.148438 90.074219 43.5625 84 43.5625 C 79.386719 43.5625 76.921875 40.371094 76.921875 36.378906 C 76.921875 30.164062 81.015625 24.574219 87.195312 24.574219 C 92.019531 24.578125 94.171875 28.082031 94.171875 31.761719 Z M 82.195312 36.273438 C 82.195312 38.148438 82.925781 39.640625 84.695312 39.640625 C 87.402344 39.640625 88.929688 34.78125 88.929688 31.621094 C 88.929688 30.09375 88.339844 28.53125 86.5 28.53125 C 83.722656 28.5 82.195312 33.324219 82.195312 36.273438 Z M 92.957031 50.679688 L 96.53125 31.867188 C 96.949219 29.746094 97.363281 27.007812 97.574219 25.0625 L 102.121094 25.0625 L 101.808594 27.976562 L 101.878906 27.976562 C 103.265625 26.035156 105.277344 24.75 107.328125 24.75 C 111.074219 24.75 112.601562 27.769531 112.601562 31.207031 C 112.601562 37.453125 108.644531 43.632812 102.605469 43.632812 C 101.355469 43.632812 100.175781 43.425781 99.585938 42.9375 L 99.480469 42.9375 L 98.058594 50.679688 Z M 100.28125 38.945312 C 100.835938 39.398438 101.460938 39.675781 102.398438 39.675781 C 105.277344 39.675781 107.257812 34.953125 107.257812 31.621094 C 107.257812 30.234375 106.773438 28.777344 105.210938 28.777344 C 103.40625 28.777344 101.738281 30.894531 101.148438 34.121094 Z M 112.777344 43.425781 L 116.246094 25.0625 L 121.417969 25.0625 L 117.914062 43.425781 Z M 119.441406 23.152344 C 117.984375 23.152344 117.011719 21.902344 117.011719 20.375 C 117.011719 18.710938 118.328125 17.285156 119.960938 17.285156 C 121.523438 17.285156 122.53125 18.5 122.53125 19.996094 C 122.496094 21.902344 121.105469 23.117188 119.511719 23.117188 C 119.511719 23.152344 119.441406 23.152344 119.441406 23.152344 Z M 122.390625 43.425781 L 125.097656 28.914062 L 122.703125 28.914062 L 123.433594 25.0625 L 125.828125 25.0625 L 125.964844 24.125 C 126.382812 21.972656 127.179688 19.75 128.953125 18.292969 C 130.339844 17.113281 132.144531 16.558594 133.984375 16.558594 C 135.234375 16.558594 136.171875 16.730469 136.761719 17.007812 L 135.753906 21.035156 C 135.234375 20.863281 134.679688 20.757812 134.125 20.757812 C 132.421875 20.757812 131.382812 22.390625 131.070312 24.160156 L 130.894531 25.097656 L 134.46875 25.097656 L 133.777344 28.949219 L 130.234375 28.949219 L 127.527344 43.457031 Z M 140.890625 25.0625 L 141.726562 33.289062 C 141.898438 34.746094 142.039062 36.167969 142.175781 37.628906 L 142.246094 37.628906 C 142.664062 36.65625 143.042969 35.230469 143.773438 33.253906 L 146.898438 25.0625 L 152.277344 25.0625 L 145.996094 38.496094 C 143.773438 43.113281 141.585938 46.476562 139.261719 48.664062 C 137.421875 50.367188 135.269531 51.234375 134.226562 51.441406 L 132.804688 47.070312 C 133.671875 46.757812 134.75 46.304688 135.71875 45.609375 C 136.898438 44.777344 137.90625 43.667969 138.53125 42.523438 C 138.671875 42.242188 138.707031 42.070312 138.636719 41.722656 L 135.546875 25.027344 C 135.476562 25.0625 140.890625 25.0625 140.890625 25.0625 Z M 192.957031 26.796875 C 192.472656 26.796875 191.984375 27.214844 191.882812 27.699219 L 190.144531 36.726562 C 189.207031 41.308594 186.398438 41.929688 183.726562 41.929688 C 178.96875 41.929688 178.832031 39.222656 179.351562 36.550781 L 181.398438 25.964844 C 181.503906 25.480469 181.15625 25.0625 180.671875 25.0625 C 180.183594 25.0625 179.699219 25.480469 179.59375 25.964844 L 177.546875 36.550781 C 177.128906 38.703125 177.269531 40.265625 177.996094 41.410156 C 178.898438 42.832031 180.703125 43.5625 183.414062 43.5625 C 186.121094 43.5625 188.203125 42.832031 189.660156 41.410156 C 190.804688 40.265625 191.570312 38.667969 191.984375 36.550781 L 193.6875 27.664062 C 193.789062 27.214844 193.445312 26.796875 192.957031 26.796875 Z M 176.539062 17.355469 C 176.054688 17.355469 175.53125 17.773438 175.464844 18.257812 L 170.8125 42.453125 C 170.707031 42.9375 171.054688 43.355469 171.542969 43.355469 C 172.027344 43.355469 172.511719 42.9375 172.617188 42.453125 L 177.269531 18.257812 C 177.371094 17.773438 177.027344 17.355469 176.539062 17.355469 Z M 26.070312 13.539062 L 24.820312 13.921875 C 24.679688 13.398438 24.472656 12.914062 24.230469 12.425781 C 23.328125 10.726562 22.042969 9.824219 20.480469 9.824219 C 20.378906 9.824219 20.273438 9.824219 20.167969 9.859375 C 20.132812 9.789062 20.066406 9.753906 20.03125 9.683594 C 19.335938 8.957031 18.46875 8.609375 17.425781 8.609375 C 15.378906 8.679688 13.367188 10.136719 11.734375 12.738281 C 10.589844 14.578125 9.6875 16.871094 9.441406 18.675781 L 5.453125 19.925781 C 4.269531 20.308594 4.238281 20.339844 4.097656 21.453125 C 3.992188 22.285156 0.90625 46.132812 0.90625 46.132812 L 26.484375 50.539062 L 26.484375 13.503906 C 26.277344 13.503906 26.171875 13.503906 26.070312 13.539062 Z M 20.167969 15.378906 L 15.863281 16.730469 C 16.28125 15.136719 17.078125 13.539062 18.050781 12.496094 C 18.398438 12.113281 18.917969 11.664062 19.507812 11.421875 C 20.066406 12.601562 20.167969 14.234375 20.167969 15.378906 Z M 17.390625 9.996094 C 17.808594 9.964844 18.257812 10.101562 18.605469 10.308594 C 18.015625 10.621094 17.496094 11.039062 17.042969 11.523438 C 15.761719 12.914062 14.753906 15.066406 14.371094 17.148438 L 10.796875 18.257812 C 11.527344 14.996094 14.234375 10.101562 17.390625 9.996094 Z M 13.433594 28.601562 C 13.574219 30.789062 19.300781 31.242188 19.613281 36.34375 C 19.855469 40.371094 17.496094 43.113281 14.058594 43.320312 C 9.929688 43.597656 7.671875 41.167969 7.671875 41.167969 L 8.539062 37.453125 C 8.539062 37.453125 10.832031 39.1875 12.636719 39.050781 C 13.816406 38.980469 14.269531 38.007812 14.199219 37.316406 C 14.023438 34.46875 9.375 34.640625 9.0625 29.992188 C 8.820312 26.070312 11.386719 22.078125 17.078125 21.730469 C 19.265625 21.589844 20.378906 22.144531 20.378906 22.144531 L 19.09375 27.007812 C 19.09375 27.007812 17.636719 26.347656 15.933594 26.449219 C 13.433594 26.625 13.398438 28.222656 13.433594 28.601562 Z M 21.523438 14.960938 C 21.523438 13.921875 21.382812 12.496094 20.898438 11.246094 C 22.425781 11.523438 23.1875 13.296875 23.535156 14.335938 C 23.5 14.335938 21.523438 14.960938 21.523438 14.960938 Z M 27.214844 50.46875 L 37.835938 47.832031 C 37.835938 47.832031 33.253906 16.941406 33.253906 16.730469 C 33.21875 16.558594 33.082031 16.417969 32.871094 16.382812 C 32.734375 16.382812 29.75 16.316406 29.75 16.316406 C 29.75 16.316406 27.945312 14.542969 27.25 13.886719 L 27.25 50.46875 Z M 27.214844 50.46875 " fill-opacity="1" fill-rule="nonzero"/></g></svg>