<svg xmlns="http://www.w3.org/2000/svg" xmlns:xlink="http://www.w3.org/1999/xlink" width="86" zoomAndPan="magnify" viewBox="0 0 64.5 64.499999" height="86" preserveAspectRatio="xMidYMid meet" version="1.0"><defs><clipPath id="1d54634e40"><path d="M 19 1 L 64 1 L 64 45 L 19 45 Z M 19 1 " clip-rule="nonzero"/></clipPath><clipPath id="f4df46d598"><path d="M 42.300781 -16.753906 L 81.242188 22.1875 L 35.457031 67.972656 L -3.484375 29.027344 Z M 42.300781 -16.753906 " clip-rule="nonzero"/></clipPath><clipPath id="be6b4645df"><path d="M 42.300781 -16.753906 L 81.242188 22.1875 L 35.457031 67.972656 L -3.484375 29.027344 Z M 42.300781 -16.753906 " clip-rule="nonzero"/></clipPath><clipPath id="fd441b5953"><path d="M 0 20 L 44 20 L 44 64.003906 L 0 64.003906 Z M 0 20 " clip-rule="nonzero"/></clipPath><clipPath id="5e0fe00d92"><path d="M 42.300781 -16.753906 L 81.242188 22.1875 L 35.457031 67.972656 L -3.484375 29.027344 Z M 42.300781 -16.753906 " clip-rule="nonzero"/></clipPath><clipPath id="9e4e7e0600"><path d="M 42.300781 -16.753906 L 81.242188 22.1875 L 35.457031 67.972656 L -3.484375 29.027344 Z M 42.300781 -16.753906 " clip-rule="nonzero"/></clipPath></defs><g clip-path="url(#1d54634e40)"><g clip-path="url(#f4df46d598)"><g clip-path="url(#be6b4645df)"><path fill="#e3ff04" d="M 56.320312 1.4375 C 60.179688 1.183594 63.421875 4.425781 63.167969 8.285156 L 61.210938 38.792969 C 60.980469 42.363281 57.890625 45.113281 54.316406 44.925781 C 50.75 44.734375 47.996094 41.640625 48.230469 38.066406 L 49.722656 14.890625 L 26.539062 16.375 C 22.96875 16.613281 19.871094 13.855469 19.679688 10.289062 C 19.539062 6.445312 22.316406 3.675781 25.8125 3.394531 Z M 56.503906 4.285156 L 25.992188 6.25 C 23.570312 6.414062 22.40625 8.050781 22.535156 10.132812 C 22.640625 12.15625 24.324219 13.660156 26.355469 13.527344 C 34.542969 13.144531 42.914062 12.488281 51.152344 11.929688 C 52.019531 11.871094 52.734375 12.585938 52.675781 13.453125 C 52.144531 21.609375 51.597656 30.273438 51.078125 38.175781 C 50.945312 40.207031 52.449219 41.964844 54.472656 42.070312 C 56.496094 42.183594 58.230469 40.636719 58.355469 38.613281 L 60.320312 8.101562 C 60.460938 5.898438 58.707031 4.144531 56.503906 4.285156 Z M 56.503906 4.285156 " fill-opacity="1" fill-rule="nonzero"/></g></g></g><g clip-path="url(#fd441b5953)"><g clip-path="url(#5e0fe00d92)"><g clip-path="url(#9e4e7e0600)"><path fill="#e3ff04" d="M 36.957031 20.800781 C 40.820312 20.542969 44.0625 23.785156 43.8125 27.652344 L 41.847656 58.152344 C 41.621094 61.722656 38.527344 64.476562 34.953125 64.285156 C 31.386719 64.09375 28.636719 61.003906 28.863281 57.433594 L 30.359375 34.25 L 7.171875 35.742188 C 3.609375 35.976562 0.511719 33.21875 0.320312 29.652344 C 0.175781 25.804688 2.957031 23.039062 6.453125 22.757812 Z M 37.144531 23.648438 L 6.632812 25.609375 C 4.207031 25.773438 3.046875 27.414062 3.167969 29.5 C 3.28125 31.519531 4.960938 33.019531 6.992188 32.886719 C 15.183594 32.507812 23.546875 31.855469 31.792969 31.292969 C 32.65625 31.234375 33.371094 31.949219 33.3125 32.8125 C 32.800781 40.660156 32.195312 50.441406 31.710938 57.480469 C 31.585938 59.507812 33.085938 61.324219 35.105469 61.4375 C 37.132812 61.542969 38.867188 60 38.996094 57.972656 L 40.957031 27.460938 C 41.101562 25.261719 39.34375 23.503906 37.144531 23.648438 Z M 37.144531 23.648438 " fill-opacity="1" fill-rule="nonzero"/></g></g></g></svg>